<svg xmlns="http://www.w3.org/2000/svg" width="95" height="36" fill="none"><g id="Frame 5952"><path id="Vector" fill="#231F20" d="m26.49 21.42.016-.991c-.013-1.029.056-6.318.059-6.596.005-.592 0-2.706 0-3.153-.01-2.3-.585-4.23-.893-4.83-.955-1.848-2.232-3.39-4.212-4.252-.774-.34-1.828-.69-2.698-.853-.317-.058-2.711-.398-3.694-.378-.838.018-2.647.138-3.03.687-.483.694.033 2.44.076 2.583.102.478.273 1.785.271 1.96.138.805.697 6.582.863 7.968.163 1.358.367 5.506.434 8.046.023.939-.036 9.572-.462 10.144-.335.45-.825.6-1.535.434-.321-.077-.898-.7-1.094-1.22-.442-1.177-.73-2.29-.774-3.865-.023-.88-.314-3.454-.452-3.995-.288-1.128-.835-2.491-1.881-3.354-.536-.442-3.056-1.585-5.006-.467-2.177 1.248-2.698 3.68-2.402 5.81.763 4.55 3.857 7.946 7.576 9.64 1.583.72 2.602.904 2.926.963.51.09.972.161 1.508.217.194.02.46.041.656.051.649.036 2.096.046 2.596 0 .794-.074 2.326-.395 3.084-.648 3.686-1.23 6.343-3.638 7.579-7.602.35-1.118.357-2.504.434-3.88q.029-1.209.059-2.417z"/><path id="Vector_2" fill="#231F20" d="M93.279 18.74c-.123.23-.07.619-.135.935l-.164 1.098c-.056.22-.276.99-.288 1.098-1.394 3.318-2.915 5.735-5.91 7.43-.406.23-1.914.659-2.042.674-.097.038-.727.14-.95.156-1.48.255-2.833-.299-3.295-1.333-.133-.298-.283-.801-.265-1.202.018-.424.043-1.287.217-1.567 1.626-.314 2.854-.945 4.046-1.675 1.358-.834 2.626-1.8 3.52-3.096.513-.745 1.07-1.573 1.25-2.514.103-.526.192-1.093.215-1.261.09-.685.166-2.13.005-2.959-.207-1.057-.694-1.672-1.616-2.165-.138-.074-.418-.212-.572-.247-1.912-.46-3.463.252-4.656.913-2.32 1.284-3.984 3.29-5.072 5.826-.132.309-.485 1.136-.492 1.22-.156.447-.784 3.012-.96 3.962-.204 1.084-.674 1.58-.814 1.807-.748 1.2-1.614 2.384-2.502 3.109-.14.115-.39.276-.551.373-.43.252-1.126.337-1.517.023-.362-.294-.806-1.606-.936-2.17-.085-.365-.31-1.983-.332-2.137a28 28 0 0 1-.153-1.113c-.049-.623-.269-2.647-.297-2.991-.074-.86-.194-1.976-.252-2.887-.023-.35-.25-4.74-.337-5.302-.03-.192-.113-1.072-.026-1.177.072-.084.618-.168 1.047-.288 1.103-.314 2.208-.654 3.234-1.052.293-.112 1.258-.5 1.062-.998-.179-.398-.922-.47-1.588-.432-.299.018-1.531.136-1.86.184-.187.028-1.81.304-2 .322-.222-.118-.135-.531-.194-.825-.07-.362-.247-1.005-.403-1.32-.138-.28-.25-.592-.395-.875-.616-1.2-1.665-2.198-3.107-2.596-.615-.171-1.412-.056-1.68-.015-.329.048-.725.347-.888.597-.048.074-.176.34-.194.485a70 70 0 0 0-.107 2.93c0 .409.023 2.152-.049 2.548l-.064.051c-.199.074-5.054.587-6.271.57-.082-.246-.064-.501-.143-.938-.082-.457-.455-1.863-.485-1.952-.797-2.247-2.767-5.787-5.803-5.734a6 6 0 0 0-.712.064c-.4.059-1.067.352-1.314.623-.327.36-.618.863-.684 1.432-.026.217-.238 4.707-.24 5.144-.003.559.01 1.125-.046 1.672-.176.112-.419.153-.682.191a4.2 4.2 0 0 1-.926.054c-.263-.018-.577-.041-.83-.018-.393.033-.771.21-.865.597-.072.301.14.536.257.697.368.503 1.47.878 2.16 1.072.352.1.664.146.868.263q-.014 1.626-.033 3.247c-.008.671.02 1.417-.082 1.994-.015.316-.087.625-.133.939-.04.28-.447 1.54-.472 1.634-.082.329-.301.732-.431 1.041-.97 2.308-2.64 4.324-4.654 5.624-.133.087-.442.25-.577.324-.497.273-1.843.625-2.009.659-.14.045-.748.148-.911.155-.513.084-1.404.028-1.907-.071-.286-.056-.559-.222-.794-.365-.122-.077-.452-.475-.53-.595-.087-.133-.3-.63-.327-.8a6 6 0 0 1-.06-.972c.006-.457.06-.885.118-1.235.253-.158 1.203-.352 1.317-.403.358-.105.641-.151.965-.294 1.869-.822 3.96-2.274 5.116-3.824.23-.352.475-.648.7-1.006.459-.735.798-2.11.824-2.236.306-1.496.41-3.898-.314-4.982-.363-.54-.899-1.037-1.58-1.195-.136-.03-.853-.245-1.943-.14-.327.03-.875.168-1.128.242-1.08.314-1.703.717-2.514 1.284-1.496 1.047-2.642 2.369-3.615 3.946-.087.14-.508.942-.63 1.218-.062.135-.557 1.177-.667 1.557-.076.263-.278.853-.321 1.11-.074.43-.202 1.022-.25 1.435-.036.286-.143 1.84-.108 2.522.016.311.09.919.125 1.23.051.468.437 1.744.524 1.986.102.291.528 1.164.597 1.328.993 1.651 2.81 2.596 5.225 2.657.455.013.94 0 1.394-.04.477-.042.998-.164 1.457-.29 2.752-.747 4.759-2.373 6.231-4.433.45-.628 1.019-1.25 1.234-2.098l.038-.013q.026.006.05.015c.006.01.008.023.014.036.066.148.114 1.774.145 2.062.082.815.22 1.371.345 1.953.125.577.227.891.344 1.223.299.827.465.934.85 1.475.205.286.493.529.758.746.531.434.983.702 1.754.916.301.084.774.148 1.146.153 1.41.016 2.599-.27 3.559-.735 1.975-.957 3.453-2.244 4.66-3.97.417-.589 1.369-2.312 1.502-2.672.071-.194.72-1.78.74-1.863.09-.35.176-.58.263-.868h.051c.005.29.028.755.054 1.023.035.391.081 1.307.107 1.504.023.168.145.921.168 1.118.161 1.45.664 2.78 1.35 3.949.56.952 1.374 2.037 2.502 2.338.623.169 1.797.306 2.609.255.71-.043 1.366-.16 1.496-.191 1.082-.258 2.16-.812 3.038-1.46.451-.334.908-.666 1.322-1.047.51-.47 1.018-1.062 1.394-1.603.12-.143.804-1.128 1.026-1.48h.05c.236.357.302.855.506 1.243.529 1.01 1.509 2.175 2.589 2.652.456.202 1.082.4 1.661.508.735.138 2.014.082 2.53.04.873-.068 1.86-.41 2.009-.459 3.492-1.207 6.111-3.933 7.525-7.134.33-.75.64-1.593.784-2.469.04-.255.166-1.14.191-1.68.046-.99-.278-2.258-1.179-1.993zm-12.26 4.563c.222-.616.39-1.226.622-1.785.148-.352.695-1.72.83-2.04.513-1.189 2.458-4.778 2.969-5.125.155-.107.298-.222.508-.2.554.06.602.652.543 1.147-.03.253-.303 2.032-.485 2.632-.426 1.399-1.028 2.45-1.827 3.49-.485.632-.935 1.166-1.568 1.646-.377.288-.791.564-1.21.796-.204.115-.436.176-.633.283q-.025-.004-.05-.012.151-.416.298-.833zm-47.559-.907c.192-.451.314-.919.493-1.358 0-.005.005-.01.005-.015.258-.643.426-1.261.707-1.886.541-1.198 1.202-2.374 1.868-3.467.343-.567.782-1.565 1.333-1.884.102-.033.2-.081.304-.1.283-.048.467.034.566.207.11.192.156 1.152.034 1.828a26 26 0 0 1-.202 1.054c-.15.672-.702 1.9-.804 2.089-.682 1.255-1.527 2.644-2.611 3.484-.508.396-1.861 1.256-2.06 1.281v-.025c-.029-.082.329-1.16.367-1.21zm27.834-8.375c-.092.383-.023.878-.115 1.315-.143.691-.24 1.452-.375 2.18-.294 1.582-.722 3.155-1.271 4.497-.09.217-.258.756-.299.83a9 9 0 0 0-.35.756 19 19 0 0 1-.786 1.393c-.337.567-1.363 1.925-2.364 1.731-.094-.018-.27-.071-.319-.14-.265-.373-.15-2.083-.137-2.767.033-1.593.076-3.311.089-4.963.005-.776-.018-1.508-.04-2.284-.021-.638-.037-1.312-.083-1.95 0-.258-.048-.641.049-.81 1.172-.143 4.294-.572 4.715-.646.217-.038.975-.165 1.192-.194.201.087.148.805.092 1.052z"/><path id="Vector_3" fill="#72BE44" d="M88.221 0c-3.617 1.11-12.38.184-13.815 8.549 1.259-.465 7.416-3.296 11.288-6.213 0 0-3.872 3.905-10.731 6.905 6.162 3.2 12.02-.468 13.258-9.241"/></g></svg>