<svg width="83" height="50" viewBox="0 0 83 50" fill="none" xmlns="http://www.w3.org/2000/svg">
<g id="Layer_1" clip-path="url(#clip0_369_1119)">
<path id="Vector" d="M23.0974 37.3785C23.1018 37.0934 23.1063 36.8061 23.1107 36.521C23.0996 35.6303 23.1597 31.0511 23.1619 30.8102C23.1664 30.2975 23.1619 28.4676 23.1619 28.0808C23.153 26.0896 22.6523 24.4188 22.3831 23.8994C21.5508 22.2994 20.4382 20.9645 18.7114 20.2175C18.0371 19.9236 17.1181 19.6208 16.3593 19.4793C16.0833 19.4285 13.996 19.1346 13.1393 19.1523C12.4094 19.1677 10.8317 19.2716 10.4979 19.7468C10.0773 20.3479 10.5268 21.8596 10.5646 21.9833C10.6536 22.3966 10.8027 23.5281 10.8005 23.6806C10.9207 24.3768 11.408 29.3781 11.5527 30.5782C11.6951 31.7539 11.8731 35.3452 11.931 37.5442C11.951 38.3575 11.8998 45.8319 11.5282 46.3269C11.2367 46.7159 10.8094 46.8463 10.1908 46.7026C9.9104 46.6363 9.40749 46.0971 9.23615 45.6462C8.85117 44.6274 8.59972 43.6638 8.56189 42.3002C8.54186 41.5378 8.28818 39.3101 8.16801 38.8415C7.91656 37.8647 7.44035 36.6845 6.52799 35.9375C6.06068 35.5552 3.86433 34.5651 2.16423 35.5331C0.266067 36.6138 -0.18789 38.72 0.0702422 40.5631C0.735599 44.5037 3.43263 47.443 6.67486 48.9105C8.05453 49.5337 8.94241 49.6928 9.22502 49.7437C9.67008 49.821 10.0728 49.8829 10.5402 49.9315C10.7093 49.9492 10.9407 49.9669 11.1121 49.9757C11.6773 50.0067 12.939 50.0155 13.3752 49.9757C14.0672 49.9116 15.4024 49.6332 16.0633 49.4144C19.2766 48.3491 21.5931 46.2651 22.6701 42.8329C22.975 41.8649 22.9817 40.6648 23.0484 39.4736C23.0662 38.7752 23.0818 38.0791 23.0996 37.3807L23.0974 37.3785Z" fill="#231F20"/>
<path id="Vector_2" d="M81.3198 35.0601C81.213 35.259 81.2597 35.5949 81.2019 35.869C81.1551 36.1872 81.1062 36.5032 81.0595 36.8193C81.0105 37.0093 80.8191 37.6768 80.808 37.7696C79.593 40.6427 78.2667 42.7356 75.6565 44.203C75.3027 44.4019 73.9875 44.7732 73.8763 44.7865C73.7917 44.8196 73.2421 44.908 73.0485 44.9213C71.7578 45.1423 70.5784 44.6627 70.1756 43.7677C70.0599 43.5091 69.9286 43.0737 69.9442 42.7267C69.9598 42.3599 69.982 41.6129 70.1334 41.3698C71.5509 41.0979 72.6212 40.552 73.6604 39.92C74.8443 39.1973 75.9502 38.3619 76.7291 37.2392C77.1764 36.5939 77.6615 35.8778 77.8195 35.0623C77.9085 34.607 77.9864 34.1164 78.0064 33.9705C78.0843 33.3782 78.151 32.1274 78.0108 31.4091C77.8306 30.4941 77.4056 29.9615 76.6022 29.535C76.4821 29.4709 76.2373 29.3516 76.1038 29.3206C74.437 28.9228 73.0841 29.5394 72.0449 30.1118C70.0221 31.2235 68.5712 32.9606 67.6233 35.1551C67.5075 35.4225 67.2004 36.1386 67.1938 36.2115C67.058 36.5983 66.5106 38.8194 66.3571 39.6415C66.1791 40.5808 65.7696 41.0095 65.6472 41.2062C64.9952 42.2449 64.2408 43.2704 63.4664 43.8981C63.344 43.9975 63.126 44.1367 62.9858 44.2207C62.6119 44.4395 62.0044 44.5124 61.664 44.2406C61.348 43.9864 60.9608 42.8505 60.8473 42.3621C60.7739 42.046 60.578 40.6449 60.558 40.5123C60.5335 40.3664 60.4401 39.7255 60.4245 39.5487C60.3822 39.0094 60.1908 37.2569 60.1664 36.9585C60.1018 36.2137 59.9972 35.2479 59.9461 34.459C59.926 34.1562 59.728 30.3549 59.6523 29.8687C59.6256 29.7029 59.5544 28.9405 59.6301 28.8499C59.6924 28.7769 60.1686 28.704 60.5424 28.6001C61.5037 28.3283 62.4673 28.0344 63.3618 27.6896C63.6178 27.5924 64.4589 27.2564 64.2876 26.8255C64.1318 26.4807 63.4842 26.4188 62.9034 26.452C62.6431 26.4674 61.5683 26.5691 61.2812 26.6111C61.1188 26.6354 59.7035 26.8741 59.5388 26.8896C59.3452 26.7879 59.4209 26.4299 59.3697 26.1757C59.3074 25.8619 59.1539 25.305 59.0181 25.0331C58.8979 24.79 58.8 24.5204 58.6732 24.2751C58.1369 23.2364 57.2223 22.3722 55.965 22.0275C55.4287 21.8794 54.7345 21.9788 54.5008 22.0142C54.2137 22.0562 53.8688 22.3148 53.7264 22.5314C53.6841 22.5955 53.5729 22.8253 53.5573 22.9513C53.5417 23.0861 53.4661 24.7679 53.4638 25.4884C53.4638 25.842 53.4839 27.3515 53.4216 27.694C53.4037 27.7073 53.3837 27.7227 53.3659 27.7382C53.1923 27.8023 48.9599 28.2465 47.8984 28.2311C47.8272 28.0189 47.8428 27.7979 47.7738 27.42C47.7026 27.0244 47.3777 25.8066 47.351 25.7293C46.6567 23.7845 44.9388 20.7191 42.293 20.7655C42.1083 20.7677 41.8524 20.7943 41.6721 20.8208C41.3227 20.8716 40.7419 21.1258 40.5261 21.36C40.2412 21.6717 39.9876 22.107 39.9297 22.5999C39.9075 22.7877 39.7228 26.6752 39.7205 27.0531C39.7183 27.5371 39.7294 28.0277 39.6805 28.5007C39.5269 28.5979 39.3155 28.6333 39.0863 28.6664C38.8037 28.7062 38.5656 28.7327 38.2786 28.7128C38.0494 28.6974 37.7756 28.6775 37.5553 28.6974C37.2127 28.7261 36.8833 28.8786 36.801 29.2145C36.7387 29.4753 36.9234 29.6786 37.0257 29.8179C37.3462 30.2532 38.3075 30.5781 38.9083 30.7461C39.2154 30.8323 39.4869 30.8721 39.6649 30.9737C39.656 31.913 39.6471 32.8478 39.636 33.7849C39.6293 34.3661 39.6538 35.0115 39.5648 35.5109C39.5514 35.785 39.4891 36.0524 39.4491 36.3242C39.4134 36.5673 39.0596 37.6569 39.0374 37.7387C38.9662 38.0238 38.7748 38.3729 38.6613 38.6404C37.8157 40.6382 36.3604 42.3842 34.6046 43.5091C34.4889 43.5842 34.2197 43.7257 34.1017 43.7898C33.6678 44.0262 32.4951 44.3312 32.3504 44.3599C32.228 44.3997 31.6984 44.4881 31.556 44.4948C31.1087 44.5677 30.3321 44.5191 29.8937 44.4329C29.6445 44.3843 29.4064 44.2406 29.2017 44.1168C29.0949 44.0505 28.8078 43.7058 28.7388 43.6019C28.6631 43.487 28.4785 43.056 28.454 42.9102C28.4139 42.6803 28.4006 42.3466 28.4028 42.0681C28.4072 41.6725 28.454 41.3012 28.5052 40.9985C28.7255 40.8615 29.5533 40.6935 29.6534 40.6493C29.9649 40.5587 30.2119 40.5189 30.4945 40.3951C32.1234 39.6835 33.9459 38.426 34.954 37.0845C35.1543 36.7795 35.3679 36.5231 35.5637 36.2137C35.9643 35.5772 36.2602 34.386 36.2825 34.2777C36.5495 32.9827 36.6408 30.903 36.0088 29.9637C35.6928 29.4974 35.2255 29.0665 34.6313 28.9294C34.5134 28.9029 33.8881 28.7173 32.9379 28.8079C32.6531 28.8344 32.1746 28.9537 31.9543 29.0178C31.013 29.2897 30.4701 29.6389 29.7624 30.1295C28.4584 31.0356 27.4593 32.1804 26.6114 33.5462C26.5358 33.6678 26.1686 34.3617 26.0618 34.6004C26.0084 34.7175 25.5767 35.6192 25.481 35.9485C25.4142 36.1762 25.2385 36.6867 25.2006 36.9099C25.1361 37.2812 25.0248 37.7939 24.9825 38.1519C24.9514 38.3995 24.8579 39.7454 24.8891 40.3355C24.9024 40.6051 24.967 41.1311 24.9981 41.4007C25.0426 41.8051 25.3786 42.9102 25.4543 43.1201C25.5433 43.3721 25.9149 44.1279 25.975 44.2693C26.8406 45.6992 28.425 46.5169 30.5302 46.57C30.9263 46.581 31.3491 46.57 31.7452 46.5346C32.1613 46.4993 32.6152 46.3932 33.0158 46.2849C35.4146 45.6374 37.1637 44.2296 38.4477 42.4461C38.8393 41.9024 39.3356 41.3631 39.5225 40.6294C39.5336 40.625 39.5447 40.6206 39.5559 40.6183C39.5714 40.6228 39.5848 40.625 39.6004 40.6316C39.6048 40.6404 39.607 40.6515 39.6115 40.6625C39.6694 40.7907 39.7116 42.1985 39.7383 42.4483C39.8095 43.1533 39.9297 43.6351 40.0387 44.1389C40.1478 44.6384 40.2368 44.9102 40.3392 45.1976C40.5995 45.9136 40.7442 46.0064 41.0802 46.475C41.2582 46.7225 41.5097 46.9324 41.7411 47.1203C42.2039 47.496 42.5978 47.7281 43.2698 47.9137C43.5324 47.9866 43.9441 48.0419 44.269 48.0463C45.4973 48.0596 46.5343 47.812 47.371 47.4098C49.0934 46.581 50.3818 45.4672 51.4344 43.9732C51.7971 43.4627 52.6271 41.9709 52.7428 41.6593C52.8051 41.4913 53.3704 40.1189 53.3882 40.0459C53.4661 39.7432 53.5417 39.5443 53.6174 39.2945H53.6619C53.6663 39.5465 53.6864 39.9487 53.7086 40.1808C53.7398 40.5189 53.7798 41.3123 53.8021 41.4825C53.8221 41.6283 53.9289 42.2803 53.9489 42.4505C54.0891 43.7058 54.5275 44.8572 55.1261 45.8694C55.6134 46.6938 56.3233 47.633 57.3069 47.8938C57.8498 48.0397 58.8735 48.159 59.5811 48.1148C60.1997 48.0772 60.7716 47.9756 60.8851 47.9491C61.8286 47.7258 62.7677 47.2463 63.5332 46.6849C63.9271 46.3954 64.3254 46.1081 64.6859 45.7788C65.1309 45.3721 65.5738 44.8594 65.9009 44.3909C66.0055 44.2671 66.6019 43.414 66.7955 43.1091H66.84C67.0447 43.4185 67.1025 43.8494 67.2806 44.1854C67.7412 45.0605 68.5957 46.0683 69.537 46.4816C69.9353 46.6562 70.4805 46.8286 70.9856 46.9214C71.6265 47.0407 72.7414 46.9921 73.1909 46.9567C73.9519 46.8971 74.8131 46.6009 74.9422 46.5589C77.9864 45.5136 80.2695 43.1533 81.5023 40.3819C81.7893 39.7321 82.0608 39.0028 82.1854 38.2448C82.2211 38.0238 82.3301 37.2569 82.3523 36.7906C82.3924 35.9331 82.1098 34.8347 81.3243 35.0645L81.3198 35.0601ZM70.6318 39.0094C70.8254 38.4768 70.9723 37.9486 71.1748 37.4646C71.3039 37.1596 71.7801 35.975 71.898 35.6988C72.3453 34.6689 74.0409 31.5616 74.486 31.261C74.6217 31.1682 74.7464 31.0688 74.9288 31.0886C75.4117 31.1395 75.454 31.6522 75.4028 32.081C75.3761 32.2997 75.138 33.8401 74.98 34.3595C74.6084 35.5706 74.0832 36.4811 73.3867 37.3806C72.9639 37.9287 72.5723 38.3906 72.0204 38.8061C71.6911 39.0558 71.3306 39.2945 70.9656 39.4956C70.7876 39.5951 70.5851 39.6481 70.4137 39.741C70.3982 39.7388 70.3848 39.7343 70.3692 39.7299C70.4583 39.489 70.545 39.2503 70.6296 39.0094H70.6318ZM29.1727 38.2249C29.3396 37.8337 29.4464 37.4293 29.6022 37.0491C29.6022 37.0447 29.6067 37.0403 29.6067 37.0359C29.8314 36.4789 29.9783 35.9441 30.2231 35.4026C30.6948 34.3661 31.2712 33.3473 31.852 32.4014C32.1502 31.9108 32.5329 31.0467 33.0136 30.7704C33.1026 30.7417 33.1871 30.6997 33.2784 30.6842C33.5254 30.6422 33.6856 30.7129 33.7724 30.8632C33.8681 31.029 33.9081 31.8599 33.8013 32.4456C33.7702 32.6224 33.69 33.0755 33.6255 33.3584C33.4942 33.9396 33.0136 35.0026 32.9246 35.1662C32.3304 36.2535 31.5938 37.4558 30.6481 38.1829C30.2053 38.5254 29.0259 39.2702 28.8523 39.2923C28.8523 39.2857 28.8523 39.2769 28.8523 39.2702C28.8278 39.1995 29.1394 38.2669 29.1727 38.2227V38.2249ZM53.4371 30.9737C53.357 31.3052 53.4171 31.734 53.337 32.1119C53.2124 32.7108 53.1278 33.3694 53.0099 33.9993C52.754 35.3695 52.3801 36.7309 51.9017 37.8934C51.8238 38.0812 51.6769 38.5475 51.6413 38.6116C51.5189 38.8393 51.4277 39.0514 51.3365 39.2658C51.2719 39.4139 50.8202 40.2205 50.6511 40.4725C50.3573 40.9631 49.4628 42.1389 48.5905 41.9709C48.5081 41.9554 48.3546 41.909 48.3123 41.8493C48.0809 41.5267 48.181 40.0459 48.1922 39.4537C48.2211 38.0746 48.2589 36.5872 48.27 35.1573C48.2745 34.4855 48.2545 33.8512 48.2344 33.1793C48.2166 32.6268 48.2033 32.0434 48.1632 31.4909C48.1632 31.2677 48.1209 30.9362 48.2055 30.7903C49.2269 30.6665 51.9484 30.2952 52.3156 30.2311C52.5047 30.198 53.1656 30.0875 53.3548 30.0632C53.5306 30.1383 53.4839 30.7593 53.4349 30.9737H53.4371Z" fill="#231F20"/>
<path id="Vector_3" d="M76.9065 18.834C73.7533 19.7954 66.1139 18.9931 64.8633 26.2354C65.9603 25.8332 71.3277 23.3823 74.7034 20.8562C74.7034 20.8562 71.3277 24.2375 65.3484 26.8343C70.7202 29.6057 75.8272 26.4299 76.9065 18.834Z" fill="#72BE44"/>
<g id="Group">
<path id="Vector_4" d="M6.5633 5.15159C6.61893 5.20021 6.65899 5.26872 6.68124 5.36154C6.70349 5.44552 6.70127 5.52508 6.67679 5.59581C6.65231 5.66874 6.59223 5.71515 6.49877 5.73946C6.00253 5.86543 5.5063 5.99361 5.01229 6.12401C5.11465 6.50634 5.21924 6.88868 5.3216 7.27102C5.37723 7.47876 5.43731 7.6622 5.50185 7.82353C5.56638 7.98265 5.64204 8.12631 5.72882 8.25228C5.81561 8.37825 5.91797 8.49538 6.03369 8.60367C6.15163 8.71197 6.28514 8.81805 6.43869 8.92413C6.68792 9.10093 6.92825 9.26448 7.15745 9.41034C7.38665 9.5562 7.59138 9.6866 7.77385 9.79931C7.84951 9.85014 7.89624 9.91865 7.91404 10.0026C7.93185 10.0888 7.91404 10.1728 7.85841 10.2546C7.81613 10.3275 7.75382 10.3805 7.67594 10.4093C7.59805 10.4402 7.51349 10.427 7.42448 10.3739C7.29987 10.2944 7.13297 10.1883 6.92157 10.0557C6.71017 9.92307 6.49209 9.77721 6.26957 9.6225C5.96248 9.41255 5.7444 9.24459 5.61533 9.11861C5.48627 8.99264 5.39948 8.87772 5.3572 8.77164C5.35498 8.77164 5.35053 8.77164 5.3483 8.77385C5.35943 8.88877 5.34163 9.03684 5.29712 9.22028C5.25262 9.40371 5.14803 9.66007 4.98781 9.98716C4.87432 10.2347 4.75638 10.4756 4.63176 10.7121C4.50715 10.9485 4.38476 11.174 4.26682 11.3905C4.21564 11.4811 4.14665 11.532 4.05542 11.543C3.96418 11.5541 3.8863 11.543 3.81954 11.5055C3.7372 11.459 3.67712 11.395 3.64374 11.3154C3.61036 11.2336 3.61704 11.1474 3.66822 11.0568C3.80396 10.8027 3.94193 10.5397 4.08212 10.27C4.22231 10.0004 4.35583 9.72638 4.48044 9.44791C4.55833 9.27995 4.62064 9.12082 4.66292 8.96833C4.7052 8.81805 4.7319 8.66556 4.74303 8.51306C4.75415 8.36057 4.74748 8.19924 4.72523 8.02685C4.70297 7.85447 4.66292 7.66662 4.60506 7.45887C4.50047 7.07653 4.39366 6.6942 4.28907 6.31186C3.76836 6.4533 3.24764 6.59696 2.72693 6.74503C2.64014 6.76934 2.56893 6.75829 2.51108 6.70746C2.45322 6.65663 2.41317 6.59033 2.38869 6.50634C2.36198 6.41573 2.35976 6.33617 2.38424 6.26766C2.40871 6.19915 2.46212 6.15053 2.54891 6.12622C3.80841 5.76819 5.07237 5.43005 6.33855 5.1096C6.43201 5.08529 6.50767 5.09855 6.5633 5.14717V5.15159ZM7.65146 4.08414C7.74047 4.06204 7.82503 4.06646 7.90737 4.09519C7.9897 4.12392 8.04311 4.18801 8.06759 4.28525C8.66174 6.71851 9.25366 9.15397 9.84336 11.5872C9.86783 11.6845 9.85003 11.764 9.7944 11.8281C9.73877 11.89 9.66978 11.9298 9.58522 11.9497C9.49621 11.9718 9.41165 11.9674 9.33377 11.9386C9.25588 11.9099 9.2047 11.8458 9.18022 11.7486C8.83753 10.3695 8.49484 8.99264 8.15215 7.61358C7.74492 7.71303 7.33992 7.81469 6.9327 7.91635C6.84591 7.93845 6.77693 7.92298 6.7213 7.87215C6.66566 7.82132 6.62561 7.74839 6.60113 7.65778C6.57888 7.57379 6.5811 7.49644 6.60558 7.42793C6.63006 7.35942 6.68569 7.31301 6.77248 7.29091C7.1797 7.18704 7.58915 7.08538 7.99638 6.98592C7.78498 6.14169 7.5758 5.29745 7.3644 4.45321C7.33992 4.35597 7.35773 4.27641 7.41781 4.21232C7.47789 4.15044 7.55577 4.10624 7.64924 4.08414H7.65146ZM9.42278 3.56478C9.51847 3.54268 9.60748 3.5471 9.68981 3.57804C9.77215 3.60677 9.82333 3.67086 9.84558 3.77031C10.4464 6.38258 11.0428 8.99485 11.6392 11.6049C11.6614 11.7044 11.6458 11.7817 11.588 11.8436C11.5323 11.9033 11.4589 11.9453 11.3699 11.9651C11.2876 11.985 11.2074 11.9784 11.1296 11.9475C11.0517 11.9165 11.0027 11.8524 10.9782 11.7552C10.3685 9.14513 9.75657 6.53728 9.1424 3.92943C9.12014 3.83219 9.13794 3.75042 9.19803 3.68854C9.25811 3.62666 9.33377 3.58467 9.42278 3.56478Z" fill="#73BE44" stroke="#73BE44" stroke-width="0.2" stroke-miterlimit="10"/>
<path id="Vector_5" d="M12.8196 3.6289C12.9153 3.60901 12.9888 3.62448 13.0422 3.67531C13.0956 3.72614 13.1312 3.79465 13.149 3.88084C13.169 3.97367 13.1623 4.05323 13.1334 4.11953C13.1045 4.18583 13.0422 4.23003 12.9487 4.24992C12.6705 4.30517 12.3946 4.36263 12.1164 4.4223C11.9874 4.44882 11.9362 4.52176 11.9607 4.63889C12.2299 5.88535 12.497 7.13403 12.764 8.38049C12.7885 8.49983 12.8641 8.54403 12.9888 8.51972C13.1601 8.48436 13.3225 8.44458 13.4828 8.40259C13.6408 8.3606 13.8032 8.30535 13.9679 8.23684C14.0435 8.20811 14.1103 8.21253 14.1659 8.25452C14.2216 8.2943 14.2638 8.35618 14.295 8.44016C14.3261 8.53077 14.3328 8.61033 14.3128 8.68327C14.2928 8.7562 14.246 8.80703 14.1704 8.83576C13.9612 8.91311 13.7654 8.97499 13.5829 9.02582C13.4004 9.07665 13.1846 9.12969 12.9353 9.18053C12.6817 9.23357 12.4947 9.22473 12.3768 9.14958C12.2589 9.07665 12.1721 8.91311 12.1164 8.66559C11.8227 7.32851 11.5268 5.98922 11.233 4.65215C11.1774 4.40462 11.1907 4.22119 11.2708 4.10185C11.351 3.98472 11.5245 3.89852 11.7893 3.84327C12.132 3.77034 12.4769 3.69962 12.8196 3.63111V3.6289ZM15.3342 3.14269C15.4299 3.12501 15.5033 3.14269 15.5567 3.19352C15.6079 3.24656 15.6435 3.31507 15.6591 3.40126C15.6769 3.49409 15.6702 3.57365 15.6413 3.63995C15.6101 3.70625 15.5478 3.74824 15.4544 3.76592C15.1628 3.81896 14.8713 3.87421 14.5798 3.92946C14.4508 3.95377 14.3974 4.0245 14.4218 4.14384C14.6666 5.39472 14.9114 6.64782 15.1562 7.90091C15.1784 8.02025 15.2541 8.06666 15.3787 8.04456C15.5634 8.0092 15.7414 7.97384 15.915 7.93406C16.0886 7.89649 16.2577 7.84345 16.4224 7.77936C16.5848 7.73516 16.6916 7.80588 16.7472 7.9871C16.7762 8.07771 16.7828 8.15728 16.7606 8.23021C16.7406 8.30314 16.6916 8.35176 16.616 8.37828C16.3912 8.45342 16.1842 8.51309 15.9884 8.5595C15.7926 8.60591 15.5701 8.65233 15.3142 8.70316C15.0583 8.75178 14.8736 8.73852 14.7556 8.66338C14.6377 8.58823 14.5553 8.42469 14.5042 8.17496C14.2349 6.83125 13.9657 5.48754 13.6942 4.14605C13.6452 3.89631 13.6608 3.71288 13.7431 3.59796C13.8255 3.48304 13.999 3.39905 14.2661 3.34822C14.6243 3.27971 14.9826 3.21341 15.3409 3.14711L15.3342 3.14269ZM18.3784 1.83434C18.4674 1.82108 18.5519 1.82992 18.6321 1.86528C18.7122 1.90065 18.7589 1.96695 18.7745 2.0664C19.1995 4.71182 19.6223 7.35724 20.0451 10.0027C20.0607 10.1021 20.0384 10.1795 19.9783 10.2369C19.9183 10.2944 19.8448 10.3297 19.7625 10.343C19.6779 10.3563 19.6 10.343 19.5244 10.3099C19.4487 10.2745 19.4042 10.206 19.3864 10.1065C19.1416 8.61696 18.8946 7.12519 18.6476 5.63562C18.2471 5.69971 17.8443 5.76822 17.4438 5.83673C17.6796 7.18486 17.9155 8.53519 18.1514 9.88553C18.1692 9.98498 18.1492 10.0623 18.0935 10.122C18.0379 10.1795 17.9645 10.2148 17.8732 10.2325C17.7887 10.248 17.7086 10.2369 17.6329 10.2038C17.5572 10.1684 17.5105 10.1021 17.4927 10.0027C17.0499 7.53846 16.6048 5.07206 16.1598 2.60786C16.142 2.50841 16.1642 2.43106 16.2288 2.37138C16.2933 2.31171 16.3689 2.27635 16.458 2.25867C16.5536 2.24099 16.6404 2.25204 16.7183 2.28519C16.794 2.32055 16.8429 2.38685 16.8585 2.48631C17.0187 3.39684 17.1767 4.30517 17.3369 5.21571C17.7397 5.1472 18.1425 5.07869 18.5475 5.0146C18.3917 4.07091 18.2337 3.12722 18.078 2.18353C18.0624 2.08408 18.0846 2.00452 18.1492 1.94706C18.2137 1.8896 18.2916 1.85202 18.3806 1.83876L18.3784 1.83434Z" fill="#73BE44" stroke="#73BE44" stroke-width="0.2" stroke-miterlimit="10"/>
<path id="Vector_6" d="M24.1258 1.75919C24.2215 1.74814 24.2949 1.77024 24.3439 1.82549C24.3928 1.88074 24.4218 1.95146 24.4307 2.03766C24.4418 2.13048 24.4307 2.21004 24.3973 2.27413C24.3639 2.34043 24.2994 2.378 24.2037 2.38905C23.8143 2.43546 23.4226 2.48187 23.0332 2.53271C22.9019 2.54818 22.8463 2.6189 22.8619 2.73603C23.0332 4.03995 23.2023 5.34609 23.3737 6.65001C23.3892 6.76936 23.4605 6.8224 23.5851 6.80472C23.8098 6.77599 24.0435 6.73842 24.2838 6.69201C24.5241 6.6456 24.7378 6.59697 24.9269 6.53951C24.9981 6.51741 25.0604 6.52625 25.1161 6.56824C25.1717 6.60802 25.2095 6.67211 25.234 6.7561C25.2585 6.84892 25.2585 6.93069 25.234 7.00583C25.2095 7.07876 25.1583 7.12738 25.0805 7.14948C24.8335 7.218 24.5775 7.27767 24.3127 7.32629C24.0479 7.37712 23.7631 7.41911 23.4605 7.45889C23.2045 7.49204 23.0199 7.46773 22.9064 7.38375C22.7951 7.29977 22.7217 7.1318 22.6861 6.87986C22.4969 5.48311 22.3055 4.08637 22.1164 2.68962C22.0808 2.43767 22.1097 2.25424 22.1987 2.14595C22.2877 2.03545 22.468 1.96251 22.735 1.92936C23.2001 1.86969 23.663 1.81223 24.128 1.75919H24.1258ZM27.0498 1.44536C27.1455 1.43652 27.2189 1.45862 27.2657 1.51609C27.3124 1.57134 27.3413 1.64427 27.3502 1.73046C27.3591 1.82328 27.3458 1.90284 27.3102 1.96693C27.2746 2.03103 27.21 2.0686 27.1121 2.07744C26.7338 2.1128 26.3578 2.15258 25.9795 2.19236C25.8482 2.20562 25.7903 2.27413 25.8037 2.39347C25.9461 3.70182 26.0885 5.01016 26.2287 6.31851C26.242 6.43785 26.311 6.49089 26.4379 6.47763C26.6693 6.45332 26.9141 6.42017 27.1678 6.37818C27.4214 6.33619 27.6462 6.28536 27.842 6.2279C27.9132 6.20801 27.9778 6.21906 28.0312 6.26105C28.0846 6.30304 28.1224 6.36713 28.1447 6.45332C28.1669 6.54614 28.1647 6.62791 28.138 6.70085C28.1113 6.77378 28.0579 6.82019 27.98 6.84229C27.7263 6.91301 27.4593 6.97047 27.1811 7.01467C26.903 7.05887 26.607 7.09865 26.2955 7.1318C26.0373 7.15832 25.8549 7.1318 25.7436 7.0434C25.6345 6.95721 25.5633 6.78925 25.5344 6.53509C25.3742 5.13393 25.2162 3.73276 25.056 2.3338C25.027 2.07965 25.0582 1.89842 25.1517 1.79234C25.2429 1.68405 25.4254 1.61554 25.6924 1.58681C26.1441 1.53819 26.5959 1.49399 27.0476 1.44978L27.0498 1.44536ZM28.6231 0.585658C28.721 0.576818 28.8078 0.594498 28.8901 0.634279C28.9702 0.67406 29.0147 0.749201 29.0236 0.855283C29.1015 1.78792 29.1794 2.72056 29.2573 3.65541C29.6467 3.62447 30.0361 3.59353 30.4278 3.5648C30.5235 3.55817 30.5925 3.58469 30.6392 3.64436C30.6837 3.70624 30.7104 3.77917 30.7171 3.86536C30.7238 3.95376 30.7082 4.0289 30.6726 4.09521C30.637 4.16151 30.5724 4.19908 30.4767 4.20571C30.0873 4.23444 29.7001 4.26317 29.3129 4.29632C29.4398 5.81241 29.5666 7.32629 29.6912 8.84238C29.7001 8.94846 29.6712 9.02802 29.6022 9.08106C29.5332 9.1341 29.4553 9.16283 29.3641 9.17167C29.2729 9.1783 29.1905 9.16283 29.1193 9.12084C29.0459 9.07885 29.0058 9.00592 28.9969 8.89984C28.7611 6.23895 28.5252 3.57806 28.2871 0.914954C28.2782 0.808872 28.3071 0.727101 28.3761 0.67406C28.4451 0.621019 28.5274 0.590078 28.6253 0.581238L28.6231 0.585658Z" fill="#73BE44" stroke="#73BE44" stroke-width="0.2" stroke-miterlimit="10"/>
<path id="Vector_7" d="M33.5349 0.731508C33.6306 0.727088 33.7218 0.746979 33.8041 0.788969C33.8865 0.83096 33.9287 0.910522 33.9354 1.02323C33.9621 1.58016 33.9888 2.1371 34.0155 2.69403C34.0267 2.91503 34.0489 3.11172 34.0845 3.28632C34.1201 3.4587 34.1735 3.62224 34.2447 3.77253C34.3159 3.92502 34.4072 4.07088 34.5184 4.21454C34.6297 4.35819 34.7699 4.50847 34.9368 4.6698C35.1682 4.89523 35.393 5.10739 35.6111 5.30851C35.8291 5.50962 36.0383 5.69305 36.2364 5.86102C36.312 5.91848 36.3454 5.99362 36.3387 6.08423C36.332 6.17484 36.2987 6.25441 36.2408 6.32292C36.1896 6.37817 36.1206 6.41574 36.0361 6.43563C35.9493 6.45552 35.8692 6.429 35.7935 6.35828C35.6155 6.2102 35.4286 6.04666 35.235 5.86986C35.0414 5.69305 34.8278 5.49857 34.5986 5.28641C34.4317 5.12507 34.2937 4.98805 34.1869 4.87092C34.0801 4.75379 33.9955 4.65433 33.9287 4.57035C33.8642 4.48637 33.8153 4.41123 33.7819 4.34493C33.7485 4.27863 33.7263 4.22117 33.7173 4.16591C33.7129 4.16591 33.7107 4.16591 33.7062 4.16591C33.6951 4.22559 33.6773 4.28968 33.6506 4.35377C33.6239 4.42007 33.5816 4.49963 33.526 4.59245C33.4703 4.68528 33.3947 4.79578 33.3012 4.92175C33.2078 5.04772 33.0831 5.20021 32.9318 5.37481C32.7227 5.60686 32.5246 5.83008 32.3377 6.04003C32.1508 6.24998 31.9505 6.46657 31.7391 6.68757C31.6634 6.76713 31.5811 6.80029 31.4898 6.78482C31.3986 6.77155 31.3252 6.73619 31.2673 6.67873C31.2028 6.61022 31.1627 6.53287 31.1516 6.44889C31.1383 6.36491 31.1672 6.28756 31.2362 6.21683C31.4609 5.98036 31.679 5.74389 31.8926 5.50741C32.1063 5.27315 32.3154 5.03004 32.5246 4.78252C32.6759 4.60571 32.8005 4.43996 32.8962 4.28747C32.9941 4.13497 33.0698 3.97806 33.1299 3.82115C33.19 3.66424 33.2278 3.49627 33.2456 3.32168C33.2634 3.14487 33.2678 2.94818 33.2545 2.72718C33.2256 2.17025 33.1944 1.61332 33.1655 1.05859C33.1588 0.945883 33.1922 0.861901 33.2656 0.81107C33.3391 0.760239 33.4281 0.731508 33.5327 0.727088L33.5349 0.731508ZM37.9765 0.110486C38.0744 0.110486 38.1612 0.130377 38.2391 0.176788C38.317 0.223199 38.3548 0.29834 38.357 0.406632C38.3971 3.07857 38.4372 5.7483 38.4772 8.42025C38.4772 8.52633 38.4438 8.60589 38.3726 8.6523C38.3014 8.70092 38.2213 8.72523 38.1301 8.72744C38.0388 8.72744 37.9565 8.70755 37.8831 8.66114C37.8096 8.61473 37.774 8.53738 37.7718 8.4313C37.7384 6.79808 37.705 5.16264 37.6717 3.52942C37.0642 3.54268 36.4567 3.55815 35.8492 3.57804C35.7624 3.58025 35.6956 3.55152 35.6533 3.49406C35.6111 3.43439 35.5866 3.35925 35.5844 3.26422C35.5821 3.17582 35.5999 3.10288 35.6378 3.041C35.6756 2.97912 35.7401 2.94818 35.8291 2.94376C36.4389 2.92387 37.0486 2.90619 37.6605 2.89514C37.6427 2.06858 37.6272 1.24424 37.6094 0.417682C37.6094 0.30939 37.645 0.232039 37.7184 0.183418C37.7941 0.134797 37.8808 0.108276 37.9787 0.108276L37.9765 0.110486Z" fill="#73BE44" stroke="#73BE44" stroke-width="0.2" stroke-miterlimit="10"/>
<path id="Vector_8" d="M46.1079 1.08292C46.1458 1.1448 46.1636 1.22215 46.1591 1.31718C46.1547 1.40558 46.1324 1.47852 46.0879 1.5404C46.0434 1.60228 45.9744 1.63101 45.8765 1.62659C45.3669 1.6067 44.8573 1.58902 44.3477 1.57355C44.3366 1.96914 44.3255 2.36474 44.3121 2.76034C44.3055 2.97471 44.3121 3.1692 44.3255 3.33937C44.3411 3.50954 44.3722 3.66867 44.419 3.81453C44.4657 3.96039 44.528 4.10184 44.6081 4.23886C44.6882 4.37588 44.7861 4.51732 44.9018 4.66098C45.0888 4.90187 45.2712 5.12509 45.447 5.33062C45.6228 5.53394 45.7831 5.71738 45.921 5.87871C45.9789 5.94722 46.0034 6.02678 45.9967 6.11297C45.99 6.19917 45.9477 6.27652 45.8721 6.3384C45.8098 6.39586 45.7363 6.42901 45.654 6.43564C45.5694 6.44227 45.4938 6.40691 45.4248 6.33177C45.3291 6.22127 45.2 6.07098 45.0354 5.88534C44.8707 5.69749 44.706 5.49858 44.5391 5.28421C44.3077 4.99469 44.1475 4.77148 44.0607 4.61457C43.9739 4.45765 43.9249 4.32284 43.9138 4.20792C43.9094 4.20792 43.9071 4.20792 43.9027 4.20792C43.8804 4.32063 43.8204 4.45765 43.7247 4.6212C43.629 4.78474 43.4576 4.99911 43.2106 5.26874C43.0326 5.47427 42.8501 5.67097 42.6632 5.86324C42.4763 6.05551 42.296 6.23674 42.1202 6.40912C42.0468 6.48205 41.9645 6.51078 41.8755 6.49531C41.7865 6.47984 41.7153 6.44669 41.6618 6.39365C41.5951 6.32514 41.5595 6.24779 41.5484 6.1616C41.5395 6.0754 41.5706 5.99363 41.6463 5.9207C41.8488 5.71517 42.0535 5.503 42.2649 5.282C42.4763 5.0632 42.681 4.83778 42.8813 4.60794C43.0059 4.4687 43.1083 4.33389 43.1928 4.20129C43.2774 4.06869 43.3464 3.93166 43.3998 3.78801C43.4532 3.64436 43.4955 3.48744 43.5222 3.31727C43.5489 3.1471 43.5667 2.95482 43.5711 2.73824C43.58 2.34264 43.5889 1.94704 43.6001 1.54924C43.0638 1.53598 42.5252 1.52714 41.989 1.52051C41.8999 1.52051 41.8354 1.48736 41.7931 1.42326C41.7531 1.35917 41.7331 1.28403 41.7331 1.19563C41.7331 1.1006 41.7553 1.02546 41.7976 0.963575C41.8399 0.903904 41.9066 0.872963 41.9956 0.875173C43.2974 0.890644 44.597 0.923794 45.8988 0.974625C45.9945 0.979045 46.0634 1.0122 46.1035 1.07408L46.1079 1.08292ZM47.4542 0.369074C47.5455 0.373494 47.6256 0.402224 47.6946 0.453055C47.7658 0.503886 47.7969 0.579028 47.7925 0.68069C47.6567 3.18025 47.521 5.68202 47.3852 8.18157C47.3808 8.28324 47.3407 8.35396 47.2695 8.39816C47.1983 8.44015 47.1204 8.46004 47.0359 8.45562C46.9446 8.4512 46.8668 8.42247 46.8 8.37385C46.7332 8.32302 46.7021 8.24788 46.7088 8.14621C46.7777 6.72737 46.8467 5.31073 46.9157 3.89188C46.4996 3.87199 46.0835 3.85431 45.6673 3.83884C45.5783 3.83442 45.516 3.80127 45.4782 3.73497C45.4404 3.66867 45.4226 3.58911 45.4248 3.49628C45.4292 3.41009 45.4515 3.33495 45.4938 3.27749C45.536 3.21782 45.6028 3.1913 45.6918 3.19351C46.1102 3.20898 46.5285 3.22887 46.9469 3.24876C46.9892 2.38021 47.0314 1.51167 47.0737 0.643119C47.0782 0.543667 47.1182 0.470736 47.1939 0.426535C47.2695 0.384544 47.3563 0.364654 47.452 0.369074H47.4542ZM49.2945 0.373494C49.3924 0.380124 49.4748 0.408854 49.546 0.461895C49.6172 0.512726 49.6461 0.590078 49.6394 0.68953C49.4592 3.36147 49.2767 6.03341 49.0965 8.70535C49.0898 8.80702 49.0498 8.87774 48.9785 8.91973C48.9073 8.96172 48.825 8.9794 48.7338 8.97498C48.6492 8.97056 48.5735 8.94183 48.509 8.891C48.4445 8.84017 48.4133 8.76503 48.42 8.66336C48.5869 5.98921 48.7538 3.31727 48.9207 0.643119C48.9274 0.543667 48.9674 0.470736 49.0431 0.428745C49.1187 0.386754 49.2033 0.366864 49.2923 0.373494H49.2945Z" fill="#73BE44" stroke="#73BE44" stroke-width="0.2" stroke-miterlimit="10"/>
<path id="Vector_9" d="M52.5132 1.39453C52.6089 1.40337 52.6756 1.43873 52.7112 1.50283C52.7468 1.56692 52.7624 1.64206 52.7535 1.73046C52.7446 1.82328 52.7179 1.89842 52.6712 1.95588C52.6244 2.01114 52.5532 2.03766 52.4575 2.02882C52.1772 2.00451 51.8945 1.9802 51.6119 1.95809C51.4806 1.94704 51.4117 2.0023 51.4005 2.12164C51.2959 3.39241 51.1936 4.66319 51.089 5.93396C51.0779 6.05551 51.138 6.11961 51.2648 6.13066C51.4384 6.14392 51.6053 6.15497 51.7699 6.15718C51.9346 6.1616 52.1037 6.15497 52.2795 6.13508C52.3619 6.12845 52.4219 6.15276 52.4642 6.20801C52.5065 6.26326 52.5288 6.33398 52.5354 6.42238C52.5399 6.51741 52.5221 6.59697 52.482 6.66107C52.442 6.72516 52.3819 6.76052 52.3018 6.76715C52.0792 6.78041 51.8745 6.78704 51.6854 6.78483C51.4962 6.78262 51.2737 6.77157 51.0222 6.75168C50.7641 6.73179 50.5883 6.6677 50.4971 6.56382C50.4058 6.45995 50.368 6.28094 50.388 6.02457C50.4926 4.65877 50.5972 3.29296 50.6996 1.92715C50.7196 1.673 50.7841 1.50062 50.8954 1.41221C51.0067 1.32381 51.1958 1.28845 51.4651 1.31055C51.8144 1.33928 52.1616 1.36801 52.5109 1.39895L52.5132 1.39453ZM55.0567 1.63985C55.1523 1.6509 55.2191 1.68626 55.2547 1.75256C55.2881 1.81665 55.3014 1.89179 55.2925 1.9802C55.2814 2.07302 55.2525 2.14816 55.2058 2.20341C55.159 2.25866 55.0856 2.28297 54.9899 2.27192C54.6962 2.24098 54.4002 2.21004 54.1042 2.18131C53.973 2.16805 53.904 2.22109 53.8906 2.34264C53.7638 3.61121 53.6369 4.87977 53.5101 6.15055C53.499 6.26989 53.5546 6.3384 53.6814 6.34945C53.8684 6.36713 54.0486 6.3826 54.2266 6.39365C54.4024 6.4047 54.5805 6.40249 54.7562 6.38923C54.9231 6.39365 55.0077 6.49089 55.0055 6.67875C55.0077 6.77378 54.9899 6.85334 54.9476 6.91522C54.9076 6.97931 54.8475 7.01246 54.7652 7.01688C54.5293 7.02572 54.3112 7.02351 54.1131 7.01467C53.9129 7.00362 53.6859 6.98594 53.4278 6.96163C53.1696 6.93732 52.9961 6.87102 52.9048 6.76494C52.8136 6.65886 52.7802 6.47984 52.8047 6.22569C52.9337 4.86209 53.0628 3.49849 53.1919 2.1349C53.2164 1.88074 53.2853 1.71057 53.3966 1.62217C53.5079 1.53598 53.6992 1.50504 53.9685 1.53156C54.3312 1.56692 54.6917 1.60449 55.0544 1.64206L55.0567 1.63985ZM58.3478 1.24646C58.4369 1.25751 58.5147 1.29287 58.5815 1.34812C58.6483 1.40337 58.675 1.48294 58.6616 1.58239C58.3033 4.23665 57.9451 6.89091 57.589 9.54738C57.5757 9.64683 57.5312 9.71534 57.4577 9.75512C57.3843 9.7927 57.3042 9.80595 57.2196 9.7949C57.1351 9.78385 57.0616 9.7507 56.9993 9.69545C56.937 9.6402 56.9125 9.56285 56.9259 9.46119C57.1195 7.96278 57.3131 6.46437 57.5067 4.96817C57.1039 4.91734 56.6989 4.86872 56.2961 4.8201C56.1337 6.17928 55.969 7.53845 55.8066 8.89984C55.7932 8.99929 55.7532 9.07001 55.682 9.10979C55.6108 9.14736 55.5306 9.16283 55.4394 9.15178C55.3548 9.14294 55.2814 9.10979 55.2169 9.05675C55.1546 9.0015 55.1279 8.92415 55.139 8.8247C55.4238 6.33619 55.7109 3.84989 55.9957 1.36138C56.0069 1.26193 56.0514 1.19342 56.1292 1.15364C56.2071 1.11607 56.2917 1.1006 56.3807 1.11165C56.4764 1.1227 56.5587 1.15585 56.621 1.2111C56.6833 1.26635 56.71 1.3437 56.6989 1.44315C56.5876 2.36032 56.4786 3.27749 56.3673 4.19245C56.7723 4.24107 57.1796 4.28969 57.5846 4.34052C57.707 3.39241 57.8316 2.44209 57.954 1.49399C57.9673 1.39453 58.0118 1.32602 58.0919 1.28845C58.172 1.25088 58.2544 1.23762 58.3456 1.24867L58.3478 1.24646Z" fill="#73BE44" stroke="#73BE44" stroke-width="0.2" stroke-miterlimit="10"/>
<path id="Vector_10" d="M66.2071 3.10733C66.236 3.17363 66.2427 3.25098 66.2271 3.33717C66.2093 3.42999 66.1737 3.50071 66.1225 3.55375C66.0713 3.6068 65.9957 3.62227 65.9022 3.60459C64.8652 3.4101 63.826 3.22888 62.7846 3.0587C62.6555 3.0366 62.5799 3.08744 62.5599 3.20678C62.4308 3.99134 62.2995 4.77591 62.1704 5.56047C62.1593 5.6334 62.1638 5.68424 62.186 5.71076C62.2083 5.73728 62.2572 5.75717 62.3307 5.77043C63.0717 5.89198 63.7548 5.99143 64.3735 6.06436C64.9943 6.1395 65.6107 6.19254 66.2271 6.23012C66.3094 6.23233 66.3718 6.26327 66.4163 6.32294C66.4585 6.38261 66.4786 6.45775 66.4763 6.54394C66.4719 6.63897 66.443 6.71632 66.394 6.78042C66.3428 6.8423 66.2783 6.87103 66.196 6.86882C65.9289 6.85777 65.6485 6.84009 65.3548 6.81578C65.0611 6.79147 64.7429 6.75832 64.4046 6.71632C64.0664 6.67654 63.697 6.62571 63.3009 6.56825C62.9025 6.50858 62.4686 6.44228 61.9969 6.36493C61.7365 6.32294 61.5652 6.24559 61.4806 6.13508C61.396 6.02237 61.3738 5.84115 61.4138 5.5892C61.554 4.7074 61.6965 3.82559 61.8366 2.94378C61.8767 2.69184 61.9568 2.52608 62.0748 2.44652C62.1927 2.36696 62.3863 2.34707 62.6533 2.39127C63.7771 2.5725 64.9008 2.76919 66.0224 2.97914C66.1181 2.99682 66.1804 3.04102 66.2093 3.10733H66.2071ZM66.9258 8.44016C67.1818 8.49099 67.3486 8.57718 67.4265 8.6921C67.5044 8.80702 67.5178 8.99046 67.4644 9.24019C67.3197 9.92089 67.1773 10.5994 67.0349 11.2801C66.9815 11.5298 66.8969 11.6933 66.7812 11.7685C66.6655 11.8436 66.483 11.8569 66.2338 11.8061C64.8964 11.5364 63.5546 11.2867 62.2083 11.0591C61.9568 11.0171 61.7921 10.9397 61.712 10.827C61.6319 10.7143 61.6119 10.5331 61.6542 10.2811C61.7677 9.59601 61.8834 8.9109 61.9969 8.22578C62.0391 7.97384 62.117 7.80809 62.2327 7.72852C62.3485 7.64896 62.5332 7.62907 62.7913 7.67327C64.1732 7.90754 65.5506 8.1639 66.9236 8.44016H66.9258ZM62.9137 8.32523C62.7891 8.30313 62.7156 8.35618 62.6934 8.48215C62.591 9.07444 62.4887 9.66673 62.3863 10.259C62.364 10.385 62.4152 10.4579 62.5376 10.4778C63.7437 10.6834 64.9476 10.9088 66.147 11.1497C66.2694 11.174 66.3428 11.1231 66.3673 10.9994C66.4875 10.4115 66.6099 9.82143 66.73 9.23356C66.7567 9.10759 66.7055 9.03245 66.5832 9.00814C65.3615 8.76282 64.1376 8.53519 62.9114 8.32523H62.9137ZM68.4057 2.92168C68.5013 2.94157 68.5837 2.98356 68.6527 3.04544C68.7216 3.10733 68.7461 3.19131 68.7216 3.29739C68.5904 3.91178 68.4613 4.52617 68.33 5.14056C68.7572 5.22897 69.1845 5.31958 69.6095 5.4124C69.703 5.43229 69.7631 5.4787 69.7898 5.54942C69.8165 5.62014 69.8187 5.70192 69.7987 5.79253C69.7786 5.87872 69.743 5.94723 69.6896 6.00027C69.6362 6.05331 69.5628 6.07099 69.4693 6.04889C69.0443 5.95607 68.6193 5.86546 68.1943 5.77706C68.0541 6.44449 67.9116 7.10971 67.7714 7.77714C67.7492 7.88323 67.6958 7.94953 67.609 7.98047C67.5244 8.01141 67.4354 8.01583 67.342 7.99815C67.2507 7.97826 67.1728 7.94069 67.1105 7.87881C67.046 7.81914 67.026 7.73515 67.0482 7.62907C67.3553 6.13287 67.6646 4.63668 67.9739 3.14048C67.9962 3.03439 68.0496 2.96588 68.1342 2.93715C68.2187 2.90621 68.31 2.89958 68.4057 2.91947V2.92168Z" fill="#73BE44" stroke="#73BE44" stroke-width="0.2" stroke-miterlimit="10"/>
<path id="Vector_11" d="M77.4712 10.2259C77.4935 10.2944 77.4913 10.3739 77.4646 10.4645C77.4401 10.5485 77.4 10.6126 77.3444 10.6612C77.2888 10.7076 77.2153 10.7187 77.1241 10.6922C74.5962 9.9717 72.0505 9.32637 69.4914 8.75839C69.4002 8.7385 69.3401 8.6943 69.3156 8.62579C69.2889 8.55948 69.2867 8.48213 69.3045 8.39594C69.3245 8.30312 69.3623 8.2324 69.4135 8.18378C69.4669 8.13295 69.5381 8.11748 69.6316 8.13958C72.204 8.71198 74.7608 9.35952 77.3021 10.0822C77.3933 10.1087 77.449 10.1551 77.4712 10.2259ZM70.5662 9.89214C70.6574 9.91424 70.7331 9.95623 70.7932 10.0181C70.8533 10.08 70.8711 10.164 70.8466 10.2678C70.7197 10.8005 70.5929 11.3331 70.4638 11.8635C70.4349 11.9873 70.4794 12.0646 70.6018 12.0933C72.184 12.4691 73.7617 12.8735 75.3305 13.3067C75.4129 13.3288 75.464 13.3752 75.4863 13.4437C75.5085 13.5122 75.5063 13.5895 75.4818 13.6735C75.4574 13.7575 75.4195 13.8238 75.3661 13.8702C75.3127 13.9166 75.2437 13.9299 75.1614 13.9078C73.5258 13.4547 71.8836 13.0348 70.2346 12.6481C69.9876 12.5906 69.8274 12.5022 69.754 12.3851C69.6805 12.2679 69.6716 12.0867 69.7295 11.837C69.8652 11.2579 69.9988 10.6789 70.1345 10.0999C70.159 9.99601 70.2124 9.92971 70.2947 9.89877C70.3771 9.87004 70.4661 9.86562 70.564 9.88993L70.5662 9.89214ZM74.6318 4.58804C75.5998 4.83335 76.303 5.17591 76.7369 5.60245C77.1708 6.02899 77.3043 6.53288 77.1419 7.10749C76.9794 7.6821 76.6034 8.04234 76.0203 8.19483C75.4373 8.34732 74.6763 8.2987 73.735 8.06002C72.7915 7.82133 72.1039 7.50309 71.6655 7.09202C71.2271 6.68095 71.0736 6.18811 71.2115 5.60466C71.3473 5.02342 71.7078 4.6455 72.2952 4.47533C72.8827 4.30736 73.6638 4.34051 74.6318 4.58583V4.58804ZM74.4782 5.18254C73.7038 4.98585 73.1075 4.95049 72.6936 5.0632C72.2797 5.17812 72.0304 5.41681 71.9459 5.77483C71.8591 6.13286 71.9726 6.45774 72.2819 6.74504C72.5912 7.03235 73.1275 7.27103 73.8885 7.4633C74.6496 7.65558 75.2348 7.7042 75.6465 7.59812C76.0582 7.49204 76.3141 7.26219 76.4142 6.90637C76.5121 6.55056 76.4098 6.22347 76.1027 5.92511C75.7956 5.62897 75.2549 5.37702 74.4805 5.18033L74.4782 5.18254Z" fill="#73BE44" stroke="#73BE44" stroke-width="0.2" stroke-miterlimit="10"/>
</g>
</g>
<defs>
<clipPath id="clip0_369_1119">
<rect width="82.3529" height="50" fill="white"/>
</clipPath>
</defs>
</svg>
