<svg width="210" height="128" viewBox="0 0 210 128" fill="none" xmlns="http://www.w3.org/2000/svg">
<g id="Layer_1" clip-path="url(#clip0_410_993)">
<path id="Vector" d="M58.6914 95.6884C58.7027 94.9586 58.714 94.2231 58.7253 93.4932C58.6971 91.2132 58.8498 79.4904 58.8554 78.8737C58.8667 77.5611 58.8554 72.8765 58.8554 71.8864C58.8328 66.7888 57.5605 62.5116 56.8763 61.1821C54.7614 57.0859 51.934 53.6686 47.546 51.7563C45.8326 51.0038 43.4972 50.2287 41.5689 49.8666C40.8677 49.7365 35.5636 48.984 33.3865 49.0293C31.5318 49.0689 27.5226 49.3348 26.6744 50.5512C25.6057 52.0901 26.7479 55.96 26.844 56.2768C27.0702 57.3348 27.4491 60.2316 27.4434 60.6219C27.7488 62.4041 28.9872 75.2075 29.3547 78.2797C29.7166 81.2896 30.169 90.4833 30.316 96.1128C30.3669 98.1948 30.2369 117.329 29.2925 118.596C28.5518 119.592 27.4661 119.926 25.894 119.558C25.1816 119.389 23.9036 118.008 23.4682 116.854C22.4899 114.246 21.8509 111.779 21.7548 108.288C21.7039 106.336 21.0593 100.633 20.7539 99.4338C20.1149 96.9331 18.9048 93.9119 16.5864 91.9996C15.3989 91.0208 9.81768 88.4862 5.49747 90.9642C0.673997 93.7309 -0.479566 99.1227 0.176381 103.841C1.86714 113.929 8.72066 121.454 16.9596 125.21C20.4655 126.806 22.7217 127.213 23.4399 127.343C24.5708 127.541 25.5943 127.7 26.7818 127.824C27.2116 127.869 27.7997 127.915 28.2351 127.937C29.6714 128.017 32.8776 128.039 33.9859 127.937C35.7446 127.773 39.1374 127.06 40.8169 126.5C48.9823 123.773 54.8688 118.438 57.6057 109.652C58.3804 107.174 58.3974 104.101 58.567 101.052C58.6123 99.2641 58.6518 97.4819 58.6971 95.6941L58.6914 95.6884Z" fill="#231F20"/>
<path id="Vector_2" d="M206.644 89.7536C206.373 90.2628 206.492 91.1228 206.345 91.8243C206.226 92.639 206.102 93.4481 205.983 94.2571C205.858 94.7437 205.372 96.4523 205.344 96.6899C202.256 104.045 198.886 109.403 192.253 113.16C191.354 113.669 188.012 114.619 187.729 114.653C187.515 114.738 186.118 114.964 185.626 114.998C182.346 115.564 179.349 114.336 178.326 112.045C178.032 111.383 177.698 110.268 177.738 109.38C177.777 108.441 177.834 106.529 178.218 105.906C181.82 105.21 184.54 103.813 187.181 102.195C190.189 100.345 193 98.2062 194.979 95.3321C196.115 93.68 197.348 91.8469 197.75 89.7592C197.976 88.5938 198.174 87.3378 198.225 86.9643C198.422 85.4481 198.592 82.2458 198.236 80.4071C197.778 78.0648 196.698 76.7013 194.656 75.6093C194.351 75.4452 193.729 75.1397 193.39 75.0605C189.154 74.0421 185.716 75.6206 183.076 77.086C177.935 79.9318 174.249 84.3788 171.84 89.9969C171.546 90.6815 170.765 92.5146 170.748 92.7013C170.403 93.6914 169.012 99.3773 168.622 101.482C168.17 103.887 167.129 104.984 166.818 105.488C165.161 108.147 163.244 110.772 161.277 112.379C160.966 112.633 160.411 112.99 160.055 113.205C159.105 113.765 157.561 113.952 156.696 113.256C155.893 112.605 154.909 109.697 154.621 108.447C154.434 107.638 153.937 104.051 153.886 103.711C153.824 103.338 153.586 101.697 153.547 101.244C153.439 99.8639 152.953 95.3774 152.891 94.6136C152.727 92.7069 152.461 90.2345 152.331 88.2147C152.28 87.4396 151.777 77.7083 151.584 76.4636C151.517 76.0393 151.336 74.0874 151.528 73.8554C151.686 73.6687 152.896 73.482 153.846 73.2161C156.289 72.5202 158.738 71.7677 161.011 70.8851C161.661 70.6362 163.799 69.7762 163.363 68.673C162.967 67.7904 161.322 67.632 159.846 67.7168C159.184 67.7564 156.453 68.0167 155.724 68.1242C155.311 68.1864 151.714 68.7974 151.296 68.837C150.804 68.5768 150.996 67.6602 150.866 67.0096C150.708 66.2062 150.318 64.7805 149.973 64.0846C149.667 63.4622 149.419 62.772 149.096 62.144C147.734 59.4849 145.409 57.2727 142.215 56.3901C140.852 56.011 139.088 56.2656 138.494 56.3561C137.764 56.4636 136.888 57.1256 136.526 57.68C136.418 57.8441 136.136 58.4325 136.096 58.755C136.057 59.1001 135.864 63.4056 135.859 65.2501C135.859 66.1553 135.91 70.0195 135.751 70.8965C135.706 70.9304 135.655 70.97 135.61 71.0096C135.169 71.1737 124.414 72.3109 121.716 72.2713C121.535 71.7281 121.575 71.1624 121.4 70.1949C121.219 69.1822 120.393 66.0648 120.325 65.8667C118.561 60.888 114.195 53.0407 107.472 53.1595C107.003 53.1652 106.352 53.2331 105.894 53.301C105.007 53.4311 103.531 54.0817 102.982 54.6815C102.258 55.4792 101.614 56.5938 101.467 57.8554C101.41 58.3363 100.941 68.2883 100.935 69.2557C100.929 70.4948 100.958 71.7508 100.833 72.9615C100.443 73.2105 99.9059 73.301 99.3235 73.3858C98.6054 73.4877 98.0003 73.5556 97.2709 73.5047C96.6884 73.465 95.9929 73.4141 95.4331 73.4651C94.5622 73.5386 93.7253 73.929 93.5161 74.789C93.3578 75.4566 93.8271 75.9771 94.0872 76.3335C94.9015 77.4481 97.3444 78.2798 98.8711 78.7097C99.6515 78.9304 100.341 79.0322 100.794 79.2925C100.771 81.697 100.748 84.0902 100.72 86.4891C100.703 87.9771 100.765 89.6291 100.539 90.9078C100.505 91.6093 100.347 92.2939 100.245 92.9898C100.155 93.6122 99.2556 96.4014 99.1991 96.6107C99.0182 97.3406 98.5319 98.2345 98.2435 98.9191C96.0947 104.034 92.3965 108.503 87.9349 111.383C87.6409 111.575 86.9566 111.937 86.6569 112.102C85.5543 112.707 82.5742 113.488 82.2067 113.561C81.8957 113.663 80.5498 113.889 80.1879 113.906C79.0513 114.093 77.0778 113.969 75.9639 113.748C75.3305 113.623 74.7255 113.256 74.2052 112.939C73.9338 112.769 73.2044 111.887 73.0291 111.621C72.8368 111.326 72.3675 110.223 72.3053 109.85C72.2035 109.261 72.1695 108.407 72.1752 107.694C72.1865 106.681 72.3053 105.731 72.4353 104.956C72.9951 104.605 75.0987 104.175 75.3532 104.062C76.1448 103.83 76.7725 103.728 77.4906 103.411C81.6299 101.59 86.2611 98.3703 88.8227 94.9361C89.3316 94.1553 89.8745 93.499 90.3721 92.7069C91.3899 91.0775 92.142 88.028 92.1986 87.7508C92.8771 84.4354 93.109 79.1114 91.503 76.7069C90.7001 75.5131 89.5126 74.4099 88.0028 74.0591C87.7031 73.9912 86.1141 73.516 83.6995 73.7479C82.9757 73.8158 81.76 74.1213 81.2001 74.2854C78.8082 74.9813 77.4284 75.8752 75.6302 77.1312C72.3166 79.4509 69.7776 82.3816 67.6232 85.8781C67.4309 86.1892 66.4979 87.9658 66.2264 88.5768C66.0907 88.8766 64.9937 91.185 64.7506 92.028C64.5809 92.6107 64.1342 93.9177 64.0381 94.4891C63.8741 95.4396 63.5913 96.7522 63.4839 97.6687C63.4047 98.3024 63.1672 101.748 63.2464 103.259C63.2803 103.949 63.4443 105.295 63.5235 105.986C63.6366 107.021 64.4904 109.85 64.6827 110.387C64.9089 111.032 65.8532 112.967 66.0059 113.329C68.2056 116.99 72.2318 119.083 77.5811 119.219C78.5877 119.247 79.6621 119.219 80.6686 119.128C81.726 119.038 82.8796 118.766 83.8974 118.489C89.9932 116.831 94.4378 113.227 97.7006 108.662C98.6958 107.27 99.9568 105.889 100.432 104.011C100.46 104 100.488 103.988 100.517 103.983C100.556 103.994 100.59 104 100.63 104.017C100.641 104.039 100.647 104.068 100.658 104.096C100.805 104.424 100.912 108.028 100.98 108.667C101.161 110.472 101.467 111.706 101.744 112.995C102.021 114.274 102.247 114.97 102.507 115.705C103.169 117.539 103.536 117.776 104.39 118.976C104.843 119.609 105.482 120.147 106.07 120.628C107.246 121.59 108.247 122.184 109.954 122.659C110.622 122.846 111.668 122.987 112.493 122.998C115.615 123.032 118.25 122.399 120.376 121.369C124.753 119.247 128.027 116.396 130.702 112.571C131.623 111.264 133.732 107.445 134.027 106.648C134.185 106.218 135.621 102.704 135.666 102.517C135.864 101.742 136.057 101.233 136.249 100.594H136.362C136.373 101.239 136.424 102.268 136.481 102.863C136.56 103.728 136.662 105.759 136.718 106.195C136.769 106.568 137.04 108.237 137.091 108.673C137.448 111.887 138.562 114.834 140.083 117.425C141.321 119.536 143.125 121.94 145.624 122.608C147.004 122.981 149.605 123.287 151.403 123.174C152.975 123.077 154.429 122.817 154.717 122.749C157.115 122.178 159.501 120.95 161.446 119.513C162.447 118.772 163.459 118.036 164.375 117.193C165.506 116.152 166.632 114.84 167.463 113.64C167.729 113.324 169.244 111.14 169.736 110.359H169.849C170.369 111.151 170.516 112.254 170.969 113.114C172.139 115.355 174.311 117.935 176.703 118.993C177.715 119.44 179.1 119.881 180.384 120.119C182.012 120.424 184.845 120.3 185.988 120.209C187.922 120.056 190.11 119.298 190.438 119.191C198.174 116.515 203.975 110.472 207.108 103.377C207.838 101.714 208.527 99.8469 208.844 97.9064C208.935 97.3406 209.212 95.3774 209.268 94.1836C209.37 91.9884 208.652 89.1765 206.656 89.7649L206.644 89.7536ZM179.485 99.8639C179.977 98.5004 180.35 97.1482 180.865 95.9092C181.193 95.1284 182.403 92.0959 182.702 91.3887C183.839 88.7522 188.148 80.7974 189.279 80.028C189.624 79.7904 189.94 79.5358 190.404 79.5867C191.631 79.7168 191.739 81.0294 191.609 82.127C191.541 82.6871 190.936 86.6305 190.534 87.9601C189.59 91.0605 188.255 93.3915 186.485 95.6942C185.411 97.0973 184.416 98.2798 183.013 99.3434C182.176 99.9827 181.26 100.594 180.333 101.109C179.881 101.363 179.366 101.499 178.931 101.737C178.891 101.731 178.857 101.72 178.818 101.708C179.044 101.092 179.264 100.481 179.479 99.8639H179.485ZM74.1317 97.8554C74.5558 96.854 74.8273 95.8187 75.2231 94.8455C75.2231 94.8342 75.2344 94.8229 75.2344 94.8116C75.8055 93.3858 76.1788 92.0167 76.8008 90.6305C77.9996 87.9771 79.4641 85.3689 80.94 82.9474C81.6978 81.6914 82.6704 79.4792 83.8918 78.772C84.118 78.6984 84.3329 78.5909 84.5647 78.5513C85.1924 78.4438 85.5995 78.6249 85.82 79.0096C86.0632 79.4339 86.165 81.5612 85.8936 83.0605C85.8144 83.5131 85.6108 84.673 85.4468 85.3972C85.1132 86.8851 83.8918 89.6065 83.6656 90.0252C82.1558 92.8088 80.2841 95.8866 77.8808 97.7479C76.7555 98.6249 73.7585 100.532 73.3175 100.588C73.3175 100.571 73.3175 100.549 73.3175 100.532C73.2553 100.35 74.0469 97.9629 74.1317 97.8498V97.8554ZM135.791 79.2925C135.587 80.1411 135.74 81.2387 135.536 82.2062C135.22 83.7395 135.005 85.4254 134.705 87.0379C134.055 90.5457 133.105 94.0308 131.889 97.0068C131.691 97.4877 131.318 98.6815 131.227 98.8455C130.916 99.4283 130.685 99.9714 130.453 100.52C130.289 100.899 129.141 102.964 128.711 103.609C127.965 104.865 125.691 107.875 123.475 107.445C123.266 107.406 122.875 107.287 122.768 107.134C122.18 106.308 122.434 102.517 122.463 101.001C122.536 97.4707 122.632 93.6631 122.661 90.0025C122.672 88.2826 122.621 86.6588 122.57 84.9389C122.525 83.5245 122.491 82.0308 122.389 80.6164C122.389 80.045 122.282 79.1963 122.497 78.8229C125.092 78.5061 132.008 77.5556 132.941 77.3915C133.421 77.3066 135.101 77.0237 135.582 76.9615C136.028 77.1539 135.91 78.7437 135.785 79.2925H135.791Z" fill="#231F20"/>
<path id="Vector_3" d="M195.431 48.2148C187.419 50.6759 168.006 48.6222 164.828 67.1625C167.616 66.1328 181.255 59.8584 189.833 53.3916C189.833 53.3916 181.255 62.0479 166.061 68.6957C179.711 75.7905 192.689 67.6604 195.431 48.2148Z" fill="#72BE44"/>
<g id="Group">
<path id="Vector_4" d="M16.6746 13.1884C16.816 13.3129 16.9178 13.4883 16.9743 13.7259C17.0309 13.9409 17.0252 14.1446 16.963 14.3256C16.9008 14.5123 16.7481 14.6311 16.5106 14.6934C15.2496 15.0159 13.9886 15.344 12.7333 15.6778C12.9934 16.6566 13.2592 17.6354 13.5193 18.6142C13.6606 19.146 13.8133 19.6156 13.9773 20.0286C14.1413 20.4359 14.3336 20.8037 14.5541 21.1262C14.7746 21.4487 15.0347 21.7485 15.3288 22.0258C15.6285 22.303 15.9678 22.5746 16.3579 22.8461C16.9913 23.2987 17.602 23.7174 18.1844 24.0908C18.7669 24.4642 19.2871 24.798 19.7508 25.0866C19.943 25.2167 20.0618 25.3921 20.107 25.6071C20.1523 25.8277 20.107 26.0427 19.9657 26.2521C19.8582 26.4388 19.6999 26.5746 19.502 26.6481C19.3041 26.7273 19.0892 26.6934 18.863 26.5576C18.5463 26.3539 18.1222 26.0823 17.585 25.7429C17.0478 25.4034 16.4937 25.03 15.9282 24.634C15.1478 24.0965 14.5937 23.6665 14.2657 23.344C13.9377 23.0215 13.7172 22.7273 13.6097 22.4557C13.6041 22.4557 13.5928 22.4557 13.5871 22.4614C13.6154 22.7556 13.5702 23.1347 13.4571 23.6043C13.344 24.0738 13.0782 24.7301 12.6711 25.5675C12.3827 26.2011 12.083 26.8178 11.7663 27.4232C11.4496 28.0286 11.1386 28.6057 10.8389 29.1601C10.7089 29.3921 10.5336 29.5222 10.3017 29.5505C10.0699 29.5788 9.87198 29.5505 9.70234 29.4543C9.49311 29.3355 9.34044 29.1714 9.25561 28.9678C9.17079 28.7584 9.18776 28.5378 9.31782 28.3058C9.66275 27.6552 10.0133 26.9819 10.3696 26.2917C10.7258 25.6014 11.0651 24.8999 11.3818 24.187C11.5797 23.757 11.738 23.3497 11.8455 22.9593C11.9529 22.5746 12.0208 22.1842 12.049 21.7938C12.0773 21.4034 12.0604 20.9904 12.0038 20.5491C11.9473 20.1078 11.8455 19.6269 11.6985 19.0951C11.4327 18.1163 11.1613 17.1375 10.8955 16.1587C9.57228 16.5208 8.24907 16.8886 6.92587 17.2676C6.70534 17.3299 6.52438 17.3016 6.37736 17.1714C6.23034 17.0413 6.12855 16.8716 6.06635 16.6566C5.9985 16.4246 5.99284 16.2209 6.05504 16.0456C6.11725 15.8702 6.25296 15.7457 6.47349 15.6835C9.67406 14.7669 12.8859 13.9013 16.1035 13.0809C16.341 13.0187 16.5332 13.0526 16.6746 13.1771V13.1884ZM19.4398 10.4557C19.666 10.3992 19.8808 10.4105 20.0901 10.484C20.2993 10.5576 20.435 10.7217 20.4972 10.9706C22.007 17.1997 23.5112 23.4345 25.0097 29.6637C25.0719 29.9126 25.0266 30.1163 24.8853 30.2804C24.7439 30.4388 24.5686 30.5406 24.3537 30.5915C24.1275 30.6481 23.9126 30.6368 23.7147 30.5632C23.5168 30.4897 23.3868 30.3256 23.3246 30.0767C22.4537 26.5463 21.5829 23.0215 20.7121 19.4911C19.6773 19.7457 18.6481 20.006 17.6133 20.2662C17.3928 20.3228 17.2175 20.2832 17.0761 20.1531C16.9347 20.0229 16.8329 19.8362 16.7707 19.6043C16.7142 19.3893 16.7198 19.1912 16.782 19.0159C16.8442 18.8405 16.9856 18.7217 17.2061 18.6651C18.241 18.3992 19.2814 18.1389 20.3162 17.8843C19.779 15.7231 19.2475 13.5618 18.7103 11.4006C18.6481 11.1516 18.6933 10.948 18.846 10.7839C18.9987 10.6255 19.1966 10.5123 19.4341 10.4557H19.4398ZM23.9409 9.12618C24.1841 9.0696 24.4103 9.08092 24.6195 9.16013C24.8287 9.23368 24.9588 9.39775 25.0153 9.65235C26.5421 16.3398 28.0576 23.0272 29.573 29.7089C29.6296 29.9635 29.59 30.1615 29.443 30.32C29.3016 30.4727 29.115 30.5802 28.8888 30.6311C28.6796 30.6821 28.476 30.6651 28.2781 30.5859C28.0802 30.5067 27.9558 30.3426 27.8936 30.0936C26.3442 23.4119 24.7891 16.7358 23.2284 10.0597C23.1719 9.81076 23.2171 9.60143 23.3698 9.44301C23.5225 9.2846 23.7147 9.1771 23.9409 9.12618Z" fill="#73BE44" stroke="#73BE44" stroke-miterlimit="10"/>
<path id="Vector_5" d="M32.5708 9.28971C32.814 9.23879 33.0006 9.27839 33.1363 9.40852C33.272 9.53865 33.3625 9.71403 33.4077 9.93468C33.4586 10.1723 33.4416 10.376 33.3681 10.5457C33.2946 10.7154 33.1363 10.8286 32.8988 10.8795C32.192 11.021 31.4908 11.1681 30.7839 11.3208C30.456 11.3887 30.3259 11.5754 30.3881 11.8753C31.0723 15.0662 31.7509 18.2628 32.4294 21.4538C32.4917 21.7593 32.6839 21.8724 33.0006 21.8102C33.436 21.7197 33.8488 21.6179 34.2559 21.5104C34.6574 21.4029 35.0702 21.2614 35.4887 21.086C35.6809 21.0125 35.8506 21.0238 35.9919 21.1313C36.1333 21.2331 36.2407 21.3915 36.3199 21.6065C36.3991 21.8385 36.416 22.0422 36.3651 22.2289C36.3142 22.4156 36.1955 22.5457 36.0032 22.6193C35.4717 22.8173 34.9741 22.9757 34.5104 23.1058C34.0467 23.236 33.4982 23.3717 32.8649 23.5019C32.2202 23.6377 31.7452 23.615 31.4455 23.4227C31.1458 23.236 30.9253 22.8173 30.7839 22.1836C30.0375 18.7607 29.2854 15.3321 28.539 11.9092C28.3976 11.2756 28.4316 10.806 28.6351 10.5005C28.8387 10.2006 29.2798 9.97995 29.9527 9.8385C30.8235 9.6518 31.7 9.47075 32.5708 9.29536V9.28971ZM38.9607 8.04501C39.2038 7.99975 39.3904 8.04501 39.5261 8.17514C39.6562 8.31092 39.7467 8.48631 39.7862 8.70696C39.8315 8.94459 39.8145 9.14826 39.741 9.31799C39.6618 9.48773 39.5035 9.59522 39.266 9.64048C38.5252 9.77627 37.7845 9.91771 37.0437 10.0592C36.7157 10.1214 36.58 10.3024 36.6422 10.608C37.2642 13.8102 37.8863 17.0181 38.5083 20.2261C38.5648 20.5316 38.7571 20.6504 39.0737 20.5938C39.5431 20.5033 39.9955 20.4128 40.4365 20.3109C40.8776 20.2147 41.3074 20.079 41.7258 19.9149C42.1386 19.8017 42.41 19.9828 42.5514 20.4467C42.6249 20.6787 42.6419 20.8824 42.5853 21.0691C42.5344 21.2558 42.41 21.3802 42.2178 21.4481C41.6466 21.6405 41.1208 21.7932 40.6231 21.9121C40.1255 22.0309 39.5601 22.1497 38.9098 22.2798C38.2595 22.4043 37.7901 22.3703 37.4904 22.178C37.1907 21.9856 36.9815 21.5669 36.8514 20.9276C36.1672 17.4877 35.483 14.0478 34.7931 10.6136C34.6687 9.97429 34.7083 9.5047 34.9175 9.2105C35.1268 8.9163 35.5678 8.7013 36.2464 8.57118C37.1568 8.39579 38.0672 8.22606 38.9776 8.05633L38.9607 8.04501ZM46.6963 4.69565C46.9225 4.6617 47.1374 4.68433 47.3409 4.77485C47.5445 4.86538 47.6633 5.03511 47.7028 5.28971C48.7829 12.062 49.8573 18.8343 50.9317 25.6065C50.9713 25.8611 50.9147 26.0592 50.762 26.2063C50.6094 26.3534 50.4228 26.4439 50.2135 26.4778C49.9987 26.5118 49.8007 26.4778 49.6085 26.393C49.4162 26.3024 49.3031 26.127 49.2579 25.8724C48.6359 22.0592 48.0082 18.2402 47.3805 14.4269C46.3627 14.591 45.3392 14.7664 44.3213 14.9418C44.9207 18.393 45.5201 21.8498 46.1195 25.3067C46.1648 25.5613 46.1139 25.7593 45.9725 25.9121C45.8311 26.0592 45.6445 26.1497 45.4127 26.1949C45.1978 26.2345 44.9942 26.2063 44.802 26.1214C44.6097 26.0309 44.491 25.8611 44.4457 25.6065C43.3204 19.2982 42.1895 12.9842 41.0586 6.67585C41.0133 6.42125 41.0699 6.22323 41.2338 6.07047C41.3978 5.91771 41.5901 5.82719 41.8163 5.78193C42.0594 5.73667 42.28 5.76495 42.4779 5.84982C42.6701 5.94034 42.7945 6.11007 42.8341 6.36467C43.2413 8.69565 43.6428 11.021 44.0499 13.3519C45.0734 13.1766 46.0969 13.0012 47.1261 12.8371C46.7302 10.4212 46.3288 8.00541 45.9329 5.58957C45.8933 5.33497 45.9499 5.13129 46.1139 4.98419C46.2779 4.83709 46.4758 4.74091 46.702 4.70696L46.6963 4.69565Z" fill="#73BE44" stroke="#73BE44" stroke-miterlimit="10"/>
<path id="Vector_6" d="M61.3001 4.50384C61.5433 4.47555 61.7299 4.53213 61.8543 4.67357C61.9787 4.81501 62.0522 4.99606 62.0748 5.21671C62.1031 5.45433 62.0748 5.65801 61.99 5.82209C61.9052 5.99182 61.7412 6.088 61.4981 6.11629C60.5085 6.2351 59.5133 6.35391 58.5237 6.48404C58.19 6.52364 58.0487 6.70469 58.0883 7.00455C58.5237 10.3426 58.9534 13.6863 59.3888 17.0243C59.4284 17.3299 59.6094 17.4657 59.926 17.4204C60.4972 17.3468 61.0909 17.2507 61.7016 17.1318C62.3123 17.013 62.8552 16.8886 63.3358 16.7415C63.5168 16.6849 63.6751 16.7075 63.8165 16.815C63.9579 16.9169 64.054 17.0809 64.1162 17.2959C64.1784 17.5335 64.1784 17.7429 64.1162 17.9352C64.054 18.1219 63.9239 18.2464 63.726 18.303C63.0983 18.4784 62.4481 18.6311 61.7751 18.7556C61.1022 18.8857 60.3784 18.9932 59.6094 19.0951C58.9591 19.1799 58.4897 19.1177 58.2014 18.9027C57.9186 18.6877 57.732 18.2577 57.6415 17.6128C57.1609 14.0371 56.6746 10.4614 56.1939 6.88574C56.1035 6.24076 56.177 5.77117 56.4032 5.49394C56.6293 5.21105 57.0874 5.02435 57.7659 4.93948C58.9478 4.78673 60.124 4.63962 61.3058 4.50384H61.3001ZM68.7304 3.70045C68.9736 3.67781 69.1602 3.73439 69.2789 3.88149C69.3977 4.02293 69.4712 4.20964 69.4938 4.43029C69.5165 4.66791 69.4825 4.87159 69.392 5.03566C69.3016 5.19974 69.1376 5.29592 68.8888 5.31855C67.9275 5.40907 66.9718 5.51091 66.0105 5.61275C65.6769 5.6467 65.5299 5.82209 65.5638 6.1276C65.9257 9.47697 66.2876 12.8263 66.6439 16.1757C66.6778 16.4812 66.8531 16.617 67.1754 16.583C67.7635 16.5208 68.3855 16.4359 69.0301 16.3285C69.6748 16.221 70.2459 16.0908 70.7435 15.9437C70.9245 15.8928 71.0885 15.9211 71.2242 16.0286C71.3599 16.1361 71.456 16.3002 71.5126 16.5208C71.5691 16.7584 71.5635 16.9678 71.4956 17.1545C71.4277 17.3412 71.292 17.46 71.0941 17.5166C70.4495 17.6976 69.7709 17.8447 69.0641 17.9579C68.3572 18.071 67.6052 18.1729 66.8135 18.2577C66.1575 18.3256 65.6939 18.2577 65.4111 18.0314C65.134 17.8108 64.9531 17.3808 64.8796 16.7301C64.4724 13.1432 64.071 9.55617 63.6638 5.97484C63.5903 5.32421 63.6695 4.86028 63.907 4.58871C64.1388 4.31148 64.6025 4.13609 65.2811 4.06254C66.429 3.93807 67.5769 3.82491 68.7248 3.71176L68.7304 3.70045ZM72.7283 1.4996C72.9771 1.47697 73.1977 1.52223 73.4069 1.62407C73.6105 1.7259 73.7236 1.91827 73.7462 2.18984C73.9441 4.57739 74.142 6.96494 74.3399 9.35815C75.3295 9.27895 76.3191 9.19974 77.3143 9.12619C77.5575 9.10921 77.7328 9.17711 77.8515 9.32987C77.9646 9.48828 78.0325 9.67499 78.0494 9.89564C78.0664 10.1219 78.0268 10.3143 77.9363 10.484C77.8459 10.6538 77.6819 10.75 77.4387 10.7669C76.4491 10.8405 75.4652 10.914 74.4813 10.9989C74.8036 14.8801 75.1259 18.7556 75.4426 22.6368C75.4652 22.9084 75.3917 23.112 75.2164 23.2478C75.0411 23.3836 74.8432 23.4572 74.6113 23.4798C74.3795 23.4968 74.1703 23.4572 73.9893 23.3497C73.8027 23.2422 73.7009 23.0555 73.6783 22.7839C73.0789 15.972 72.4795 9.16013 71.8745 2.3426C71.8518 2.07103 71.9254 1.86169 72.1007 1.7259C72.276 1.59012 72.4852 1.51091 72.734 1.48828L72.7283 1.4996Z" fill="#73BE44" stroke="#73BE44" stroke-miterlimit="10"/>
<path id="Vector_7" d="M85.2166 1.87282C85.4598 1.8615 85.6916 1.91242 85.9008 2.01992C86.1101 2.12741 86.2175 2.33109 86.2345 2.61964C86.3023 4.04538 86.3702 5.47112 86.438 6.89686C86.4663 7.46263 86.5228 7.96617 86.6133 8.41313C86.7038 8.85443 86.8395 9.2731 87.0205 9.65783C87.2014 10.0482 87.4333 10.4216 87.716 10.7894C87.9987 11.1571 88.355 11.5418 88.7791 11.9549C89.3672 12.5319 89.9383 13.0751 90.4925 13.5899C91.0466 14.1048 91.5782 14.5744 92.0814 15.0044C92.2737 15.1515 92.3585 15.3438 92.3416 15.5758C92.3246 15.8078 92.2398 16.0114 92.0927 16.1868C91.9627 16.3283 91.7874 16.4244 91.5725 16.4754C91.352 16.5263 91.1484 16.4584 90.9561 16.2773C90.5038 15.8983 90.0288 15.4796 89.5368 15.027C89.0448 14.5744 88.502 14.0765 87.9196 13.5334C87.4955 13.1203 87.1449 12.7696 86.8734 12.4697C86.602 12.1698 86.3871 11.9153 86.2175 11.7003C86.0535 11.4853 85.9291 11.2929 85.8443 11.1232C85.7595 10.9534 85.7029 10.8063 85.6803 10.6649C85.669 10.6649 85.6633 10.6649 85.652 10.6649C85.6237 10.8177 85.5785 10.9817 85.5106 11.1458C85.4428 11.3155 85.3354 11.5192 85.194 11.7568C85.0526 11.9945 84.8604 12.2773 84.6229 12.5998C84.3854 12.9223 84.0687 13.3127 83.6842 13.7597C83.1526 14.3537 82.6494 14.9252 82.1744 15.4626C81.6994 16.0001 81.1904 16.5546 80.6532 17.1203C80.461 17.324 80.2518 17.4089 80.0199 17.3693C79.7881 17.3353 79.6015 17.2448 79.4544 17.0977C79.2905 16.9223 79.1887 16.7243 79.1604 16.5093C79.1265 16.2943 79.2 16.0963 79.3753 15.9153C79.9464 15.3099 80.5006 14.7045 81.0434 14.0991C81.5863 13.4994 82.1178 12.8771 82.6494 12.2434C83.0339 11.7908 83.3505 11.3665 83.5937 10.9761C83.8425 10.5857 84.0348 10.184 84.1874 9.7823C84.3401 9.3806 84.4362 8.95061 84.4815 8.50365C84.5267 8.05104 84.538 7.5475 84.5041 6.98173C84.4306 5.55599 84.3514 4.13024 84.2779 2.71016C84.261 2.42162 84.3458 2.20662 84.5324 2.0765C84.719 1.94637 84.9452 1.87282 85.2109 1.8615L85.2166 1.87282ZM96.5034 0.283001C96.7522 0.283001 96.9728 0.333921 97.1707 0.452733C97.3686 0.571545 97.4647 0.763907 97.4704 1.04113C97.5722 7.88131 97.674 14.7158 97.7757 21.556C97.7757 21.8276 97.6909 22.0312 97.51 22.15C97.329 22.2745 97.1254 22.3368 96.8936 22.3424C96.6618 22.3424 96.4525 22.2915 96.2659 22.1727C96.0793 22.0539 95.9888 21.8558 95.9832 21.5843C95.8984 17.4032 95.8135 13.2165 95.7287 9.03548C94.185 9.06942 92.6413 9.10903 91.0975 9.15995C90.877 9.16561 90.7073 9.09206 90.5999 8.94495C90.4925 8.7922 90.4303 8.59983 90.4246 8.35655C90.4189 8.13024 90.4642 7.94354 90.5603 7.78512C90.6564 7.62671 90.8204 7.5475 91.0466 7.53618C92.596 7.48527 94.1454 7.44 95.7005 7.41172C95.6552 5.29573 95.6156 3.18541 95.5704 1.06942C95.5704 0.792195 95.6609 0.594175 95.8475 0.469706C96.0397 0.345236 96.2603 0.277344 96.5091 0.277344L96.5034 0.283001Z" fill="#73BE44" stroke="#73BE44" stroke-miterlimit="10"/>
<path id="Vector_8" d="M117.161 2.77235C117.257 2.93076 117.302 3.12878 117.291 3.37206C117.279 3.59837 117.223 3.78508 117.11 3.94349C116.997 4.10191 116.821 4.17546 116.572 4.16414C115.278 4.11322 113.983 4.06796 112.688 4.02836C112.659 5.04109 112.631 6.05382 112.597 7.06655C112.58 7.61535 112.597 8.11322 112.631 8.54887C112.671 8.98451 112.75 9.39187 112.869 9.76528C112.987 10.1387 113.146 10.5008 113.349 10.8516C113.553 11.2023 113.802 11.5644 114.096 11.9322C114.571 12.5489 115.034 13.1203 115.481 13.6465C115.928 14.167 116.335 14.6366 116.686 15.0496C116.833 15.225 116.895 15.4286 116.878 15.6493C116.861 15.8699 116.753 16.068 116.561 16.2264C116.403 16.3735 116.216 16.4583 116.007 16.4753C115.792 16.4923 115.6 16.4018 115.425 16.2094C115.181 15.9265 114.853 15.5418 114.435 15.0665C114.017 14.5856 113.598 14.0764 113.174 13.5277C112.586 12.7865 112.179 12.2151 111.958 11.8134C111.738 11.4117 111.613 11.0665 111.585 10.7723C111.574 10.7723 111.568 10.7723 111.557 10.7723C111.5 11.0609 111.348 11.4117 111.104 11.8303C110.861 12.249 110.426 12.7978 109.798 13.488C109.346 14.0142 108.882 14.5177 108.407 15.01C107.932 15.5022 107.474 15.9661 107.027 16.4074C106.841 16.5941 106.632 16.6677 106.405 16.6281C106.179 16.5885 105.998 16.5036 105.862 16.3678C105.693 16.1924 105.602 15.9944 105.574 15.7738C105.551 15.5531 105.631 15.3438 105.823 15.1571C106.337 14.6309 106.858 14.0878 107.395 13.522C107.932 12.9619 108.452 12.3848 108.961 11.7964C109.278 11.44 109.538 11.0948 109.753 10.7554C109.968 10.4159 110.143 10.0651 110.279 9.69738C110.415 9.32963 110.522 8.92793 110.59 8.49229C110.658 8.05665 110.703 7.56443 110.714 7.00997C110.737 5.99724 110.759 4.98451 110.788 3.96612C109.425 3.93218 108.056 3.90955 106.694 3.89257C106.468 3.89257 106.304 3.80771 106.196 3.64363C106.094 3.47956 106.043 3.2872 106.043 3.06089C106.043 2.81761 106.1 2.62525 106.207 2.46683C106.315 2.31407 106.484 2.23486 106.711 2.24052C110.019 2.28013 113.321 2.36499 116.629 2.49512C116.872 2.50643 117.047 2.5913 117.149 2.74972L117.161 2.77235ZM120.582 0.944907C120.814 0.956222 121.017 1.02977 121.192 1.1599C121.373 1.29003 121.453 1.48239 121.441 1.74264C121.096 8.14151 120.751 14.546 120.406 20.9449C120.395 21.2052 120.293 21.3862 120.112 21.4994C119.931 21.6069 119.733 21.6578 119.519 21.6465C119.287 21.6351 119.089 21.5616 118.919 21.4371C118.75 21.307 118.67 21.1146 118.687 20.8544C118.863 17.2221 119.038 13.5955 119.213 9.96329C118.156 9.91238 117.098 9.86711 116.041 9.82751C115.815 9.81619 115.656 9.73133 115.56 9.5616C115.464 9.39187 115.419 9.18819 115.425 8.95056C115.436 8.72991 115.492 8.53755 115.6 8.39045C115.707 8.23769 115.877 8.1698 116.103 8.17546C117.166 8.21506 118.229 8.26598 119.292 8.3169C119.4 6.09342 119.507 3.86994 119.615 1.64646C119.626 1.39187 119.728 1.20516 119.92 1.09201C120.112 0.984511 120.333 0.933591 120.576 0.944907H120.582ZM125.258 0.956222C125.507 0.973195 125.716 1.04675 125.897 1.18253C126.078 1.31266 126.152 1.51068 126.135 1.76527C125.677 8.60544 125.213 15.4456 124.755 22.2858C124.738 22.546 124.636 22.7271 124.455 22.8346C124.274 22.9421 124.065 22.9873 123.833 22.976C123.618 22.9647 123.426 22.8912 123.262 22.761C123.098 22.6309 123.019 22.4385 123.036 22.1783C123.46 15.3325 123.884 8.49229 124.308 1.64646C124.325 1.39187 124.427 1.20516 124.619 1.09766C124.811 0.990168 125.026 0.939249 125.252 0.956222H125.258Z" fill="#73BE44" stroke="#73BE44" stroke-miterlimit="10"/>
<path id="Vector_9" d="M133.437 3.57005C133.68 3.59268 133.85 3.6832 133.94 3.84727C134.031 4.01135 134.07 4.20371 134.048 4.43002C134.025 4.66764 133.957 4.86 133.838 5.0071C133.72 5.14855 133.539 5.21644 133.296 5.19381C132.583 5.13157 131.865 5.06934 131.147 5.01276C130.813 4.98447 130.638 5.12592 130.61 5.43143C130.344 8.68461 130.084 11.9378 129.818 15.191C129.79 15.5022 129.942 15.6662 130.265 15.6945C130.706 15.7285 131.13 15.7568 131.548 15.7624C131.967 15.7737 132.396 15.7568 132.843 15.7058C133.052 15.6889 133.205 15.7511 133.313 15.8925C133.42 16.034 133.477 16.215 133.494 16.4413C133.505 16.6846 133.46 16.8883 133.358 17.0524C133.256 17.2164 133.103 17.307 132.9 17.3239C132.334 17.3579 131.814 17.3749 131.333 17.3692C130.853 17.3635 130.287 17.3353 129.648 17.2843C128.992 17.2334 128.546 17.0693 128.314 16.8034C128.082 16.5375 127.986 16.0792 128.037 15.4229C128.302 11.9265 128.568 8.43002 128.828 4.93355C128.879 4.28292 129.043 3.84162 129.326 3.61531C129.609 3.389 130.089 3.29848 130.774 3.35505C131.661 3.4286 132.544 3.50215 133.431 3.58136L133.437 3.57005ZM139.9 4.19805C140.143 4.22634 140.313 4.31686 140.404 4.48659C140.488 4.65067 140.522 4.84303 140.5 5.06934C140.471 5.30696 140.398 5.49932 140.279 5.64077C140.16 5.78221 139.974 5.84444 139.731 5.81616C138.984 5.73695 138.232 5.65774 137.48 5.58419C137.146 5.55024 136.971 5.68603 136.937 5.9972C136.615 9.24473 136.293 12.4923 135.97 15.7454C135.942 16.051 136.083 16.2263 136.406 16.2546C136.881 16.2999 137.339 16.3395 137.791 16.3678C138.238 16.3961 138.69 16.3904 139.137 16.3565C139.561 16.3678 139.776 16.6167 139.77 17.0976C139.776 17.3409 139.731 17.5446 139.623 17.703C139.521 17.8671 139.369 17.9519 139.16 17.9633C138.56 17.9859 138.006 17.9802 137.503 17.9576C136.994 17.9293 136.417 17.884 135.761 17.8218C135.105 17.7596 134.664 17.5898 134.432 17.3183C134.2 17.0467 134.116 16.5884 134.178 15.9378C134.506 12.447 134.834 8.95618 135.162 5.46538C135.224 4.81474 135.399 4.3791 135.682 4.15279C135.965 3.93214 136.451 3.85293 137.135 3.92082C138.057 4.01135 138.973 4.10753 139.895 4.20371L139.9 4.19805ZM148.264 3.19098C148.49 3.21927 148.688 3.30979 148.857 3.45123C149.027 3.59268 149.095 3.79635 149.061 4.05095C148.151 10.8459 147.24 17.6408 146.335 24.4413C146.301 24.6959 146.188 24.8713 146.002 24.9732C145.815 25.0693 145.612 25.1033 145.397 25.075C145.182 25.0467 144.995 24.9618 144.837 24.8204C144.679 24.679 144.616 24.4809 144.65 24.2207C145.142 20.3848 145.634 16.5488 146.126 12.7186C145.103 12.5884 144.073 12.464 143.05 12.3395C142.637 15.819 142.219 19.2985 141.806 22.7836C141.772 23.0382 141.67 23.2193 141.489 23.3211C141.308 23.4173 141.105 23.4569 140.873 23.4286C140.658 23.406 140.471 23.3211 140.307 23.1853C140.149 23.0439 140.081 22.8459 140.11 22.5913C140.833 16.2207 141.563 9.85576 142.287 3.48518C142.315 3.23058 142.428 3.05519 142.626 2.95336C142.824 2.85717 143.039 2.81757 143.265 2.84586C143.508 2.87415 143.717 2.95901 143.876 3.10046C144.034 3.2419 144.102 3.43992 144.073 3.69452C143.791 6.04246 143.514 8.39041 143.231 10.7327C144.26 10.8572 145.295 10.9816 146.324 11.1118C146.635 8.68461 146.952 6.2518 147.263 3.82464C147.297 3.57005 147.41 3.39466 147.613 3.29848C147.817 3.20229 148.026 3.16835 148.258 3.19664L148.264 3.19098Z" fill="#73BE44" stroke="#73BE44" stroke-miterlimit="10"/>
<path id="Vector_10" d="M168.237 7.9546C168.311 8.12433 168.328 8.32235 168.288 8.543C168.243 8.78062 168.152 8.96167 168.022 9.09746C167.892 9.23324 167.7 9.27284 167.462 9.22758C164.827 8.7297 162.187 8.26577 159.54 7.83013C159.212 7.77355 159.02 7.90368 158.969 8.2092C158.641 10.2177 158.307 12.2262 157.979 14.2347C157.951 14.4214 157.963 14.5515 158.019 14.6194C158.076 14.6873 158.2 14.7382 158.387 14.7721C160.27 15.0833 162.006 15.3379 163.578 15.5246C165.155 15.717 166.722 15.8528 168.288 15.9489C168.497 15.9546 168.656 16.0338 168.769 16.1866C168.876 16.3393 168.927 16.5317 168.921 16.7523C168.91 16.9956 168.837 17.1936 168.712 17.3577C168.582 17.5161 168.418 17.5897 168.209 17.584C167.53 17.5557 166.818 17.5105 166.071 17.4482C165.325 17.386 164.516 17.3011 163.657 17.1936C162.797 17.0918 161.859 16.9617 160.852 16.8146C159.84 16.6618 158.737 16.4921 157.538 16.2941C156.877 16.1866 156.441 15.9885 156.227 15.7057C156.012 15.4171 155.955 14.9532 156.057 14.3082C156.413 12.0508 156.775 9.79335 157.131 7.53593C157.233 6.89095 157.437 6.46662 157.736 6.26294C158.036 6.05927 158.528 6.00835 159.207 6.1215C162.062 6.58543 164.918 7.08897 167.768 7.62645C168.011 7.67171 168.169 7.78487 168.243 7.9546H168.237ZM170.064 21.6066C170.714 21.7368 171.138 21.9574 171.336 22.2516C171.534 22.5458 171.568 23.0154 171.432 23.6547C171.065 25.3973 170.703 27.1342 170.341 28.8768C170.205 29.5161 169.99 29.9348 169.696 30.1272C169.402 30.3195 168.938 30.3535 168.305 30.2233C164.907 29.5331 161.497 28.8938 158.076 28.311C157.437 28.2035 157.018 28.0055 156.815 27.717C156.611 27.4284 156.56 26.9645 156.668 26.3195C156.956 24.5656 157.25 22.8117 157.538 21.0578C157.646 20.4129 157.844 19.9885 158.138 19.7849C158.432 19.5812 158.901 19.5303 159.557 19.6434C163.069 20.2431 166.569 20.8994 170.058 21.6066H170.064ZM159.868 21.3124C159.552 21.2559 159.365 21.3917 159.308 21.7141C159.048 23.2304 158.788 24.7467 158.528 26.2629C158.471 26.5854 158.602 26.7721 158.913 26.8231C161.977 27.3492 165.037 27.9263 168.084 28.543C168.395 28.6052 168.582 28.4751 168.644 28.1583C168.95 26.6533 169.261 25.1427 169.566 23.6378C169.634 23.3153 169.504 23.1229 169.193 23.0607C166.088 22.4327 162.978 21.8499 159.863 21.3124H159.868ZM173.824 7.47935C174.067 7.53027 174.276 7.63777 174.452 7.79618C174.627 7.9546 174.689 8.16959 174.627 8.44116C174.293 10.014 173.965 11.5868 173.632 13.1597C174.717 13.386 175.803 13.618 176.883 13.8556C177.121 13.9065 177.273 14.0253 177.341 14.2064C177.409 14.3874 177.415 14.5967 177.364 14.8287C177.313 15.0494 177.223 15.2248 177.087 15.3605C176.951 15.4963 176.764 15.5416 176.527 15.485C175.447 15.2474 174.367 15.0154 173.287 14.7891C172.931 16.4977 172.569 18.2007 172.212 19.9093C172.156 20.1809 172.02 20.3506 171.8 20.4298C171.585 20.5091 171.359 20.5204 171.121 20.4751C170.889 20.4242 170.691 20.328 170.533 20.1696C170.369 20.0168 170.318 19.8018 170.375 19.5303C171.155 15.7 171.941 11.8697 172.727 8.03946C172.784 7.76789 172.919 7.5925 173.134 7.51895C173.349 7.43975 173.581 7.42277 173.824 7.47369V7.47935Z" fill="#73BE44" stroke="#73BE44" stroke-miterlimit="10"/>
<path id="Vector_11" d="M196.856 26.1781C196.913 26.3535 196.907 26.5572 196.839 26.7891C196.777 27.0041 196.675 27.1682 196.534 27.2927C196.393 27.4115 196.206 27.4398 195.974 27.3719C189.55 25.5275 183.081 23.8754 176.578 22.4214C176.347 22.3705 176.194 22.2573 176.132 22.0819C176.064 21.9122 176.058 21.7142 176.103 21.4935C176.154 21.2559 176.25 21.0749 176.381 20.9504C176.516 20.8203 176.697 20.7807 176.935 20.8372C183.472 22.3026 189.969 23.9603 196.427 25.8104C196.658 25.8783 196.8 25.9971 196.856 26.1781ZM179.31 25.3238C179.542 25.3804 179.734 25.4879 179.886 25.6463C180.039 25.8047 180.084 26.0197 180.022 26.2856C179.7 27.6491 179.378 29.0126 179.05 30.3705C178.976 30.6873 179.089 30.8853 179.4 30.9589C183.421 31.9207 187.43 32.9561 191.416 34.065C191.626 34.1215 191.756 34.2404 191.812 34.4157C191.869 34.5911 191.863 34.7892 191.801 35.0041C191.739 35.2191 191.643 35.3889 191.507 35.5077C191.371 35.6265 191.196 35.6604 190.987 35.6039C186.83 34.444 182.657 33.3691 178.467 32.379C177.839 32.2319 177.432 32.0056 177.246 31.7057C177.059 31.4058 177.036 30.9419 177.184 30.3026C177.528 28.8203 177.868 27.3379 178.213 25.8556C178.275 25.5897 178.411 25.42 178.62 25.3408C178.829 25.2672 179.055 25.2559 179.304 25.3181L179.31 25.3238ZM189.641 11.7453C192.101 12.3733 193.888 13.2503 194.99 14.3422C196.093 15.4341 196.432 16.7241 196.019 18.1951C195.607 19.6661 194.651 20.5883 193.169 20.9787C191.688 21.3691 189.754 21.2446 187.362 20.6336C184.964 20.0225 183.217 19.2078 182.103 18.1555C180.989 17.1032 180.599 15.8415 180.95 14.3478C181.294 12.8599 182.211 11.8924 183.703 11.4568C185.196 11.0268 187.181 11.1116 189.641 11.7396V11.7453ZM189.251 13.2672C187.283 12.7637 185.767 12.6732 184.716 12.9617C183.664 13.2559 183.03 13.8669 182.816 14.7835C182.595 15.7 182.883 16.5317 183.669 17.2672C184.455 18.0027 185.818 18.6138 187.752 19.106C189.686 19.5982 191.173 19.7227 192.219 19.4511C193.266 19.1795 193.916 18.5911 194.17 17.6802C194.419 16.7693 194.159 15.932 193.379 15.1682C192.598 14.4101 191.224 13.7651 189.256 13.2616L189.251 13.2672Z" fill="#73BE44" stroke="#73BE44" stroke-miterlimit="10"/>
</g>
</g>
<defs>
<clipPath id="clip0_410_993">
<rect width="209.27" height="128" fill="white"/>
</clipPath>
</defs>
</svg>
