<svg width="95" height="36" viewBox="0 0 95 36" fill="none" xmlns="http://www.w3.org/2000/svg">
<g id="Frame 5952">
<path id="Vector" d="M26.4909 21.4191C26.496 21.0899 26.5011 20.758 26.5062 20.4287C26.4934 19.4 26.5624 14.1109 26.5649 13.8327C26.57 13.2405 26.5649 11.1269 26.5649 10.6802C26.5547 8.38022 25.9804 6.45042 25.6715 5.85055C24.7168 4.00243 23.4405 2.46063 21.4596 1.59784C20.6862 1.25834 19.6319 0.908622 18.7615 0.745252C18.445 0.686541 16.0506 0.34704 15.0678 0.367461C14.2305 0.38533 12.4207 0.505303 12.0378 1.05412C11.5554 1.74844 12.071 3.49445 12.1144 3.6374C12.2165 4.11475 12.3875 5.4217 12.385 5.59784C12.5228 6.40192 13.0818 12.1786 13.2478 13.5647C13.4111 14.9227 13.6153 19.0707 13.6817 21.6106C13.7047 22.55 13.646 31.183 13.2197 31.7548C12.8853 32.2041 12.3952 32.3547 11.6855 32.1888C11.3639 32.1122 10.787 31.4893 10.5905 30.9686C10.1488 29.7918 9.86039 28.6789 9.817 27.1039C9.79403 26.2232 9.50302 23.6502 9.36518 23.109C9.07673 21.9807 8.53047 20.6176 7.48388 19.7548C6.94782 19.3132 4.42836 18.1696 2.47814 19.2877C0.300728 20.5359 -0.220012 22.9686 0.0760951 25.0975C0.839337 29.6489 3.93315 33.0439 7.65235 34.7389C9.235 35.4587 10.2535 35.6425 10.5777 35.7012C11.0882 35.7906 11.5502 35.862 12.0863 35.9182C12.2803 35.9386 12.5458 35.959 12.7423 35.9692C13.3907 36.005 14.8381 36.0152 15.3384 35.9692C16.1322 35.8952 17.6638 35.5736 18.422 35.3209C22.108 34.0905 24.7653 31.6833 26.0008 27.7191C26.3505 26.601 26.3582 25.2149 26.4347 23.8391C26.4552 23.0324 26.473 22.2283 26.4935 21.4217L26.4909 21.4191Z" fill="#231F20"/>
<path id="Vector_2" d="M93.2789 18.7409C93.1563 18.9707 93.2099 19.3587 93.1436 19.6752C93.09 20.0428 93.0338 20.4078 92.9802 20.7728C92.924 20.9924 92.7045 21.7633 92.6918 21.8705C91.298 25.1889 89.7766 27.6063 86.7824 29.3012C86.3765 29.531 84.8679 29.9598 84.7402 29.9751C84.6432 30.0134 84.0127 30.1155 83.7907 30.1308C82.3101 30.3861 80.9572 29.8322 80.4952 28.7984C80.3625 28.4997 80.2119 27.9968 80.2297 27.5961C80.2476 27.1723 80.2731 26.3095 80.4467 26.0287C82.0727 25.7148 83.3006 25.0843 84.4926 24.3542C85.8507 23.5195 87.1193 22.5546 88.0127 21.2578C88.5258 20.5125 89.0823 19.6854 89.2635 18.7435C89.3657 18.2176 89.455 17.6509 89.478 17.4825C89.5673 16.7984 89.6439 15.3536 89.4831 14.524C89.2763 13.4672 88.7887 12.852 87.8672 12.3593C87.7294 12.2853 87.4486 12.1474 87.2955 12.1117C85.3835 11.6522 83.8315 12.3644 82.6394 13.0255C80.3191 14.3095 78.6547 16.3159 77.5673 18.8507C77.4346 19.1596 77.0823 19.9866 77.0746 20.0709C76.9189 20.5176 76.291 23.083 76.1149 24.0326C75.9106 25.1174 75.441 25.6127 75.3006 25.8398C74.5526 27.0396 73.6873 28.224 72.799 28.949C72.6586 29.0638 72.4084 29.2246 72.2476 29.3216C71.8187 29.5744 71.1219 29.6586 70.7313 29.3446C70.3688 29.0511 69.9247 27.739 69.7945 27.1749C69.7103 26.8098 69.4856 25.1915 69.4627 25.0383C69.4346 24.8698 69.3274 24.1296 69.3095 23.9254C69.261 23.3025 69.0415 21.2783 69.0134 20.9336C68.9394 20.0734 68.8194 18.9579 68.7607 18.0466C68.7377 17.6969 68.5105 13.3063 68.4237 12.7448C68.3931 12.5533 68.3114 11.6726 68.3982 11.568C68.4697 11.4837 69.0159 11.3995 69.4448 11.2795C70.5475 10.9656 71.6528 10.6261 72.679 10.2278C72.9725 10.1155 73.9374 9.72753 73.7409 9.22976C73.5622 8.83155 72.8194 8.76007 72.1531 8.79836C71.8545 8.81623 70.6216 8.93365 70.2923 8.98215C70.1059 9.01023 68.4824 9.28592 68.2935 9.30379C68.0715 9.18636 68.1582 8.77284 68.0995 8.47928C68.0281 8.11681 67.8519 7.47354 67.6962 7.15956C67.5584 6.87877 67.4461 6.56735 67.3006 6.284C66.6854 5.08426 65.6362 4.08617 64.194 3.68796C63.5788 3.51693 62.7824 3.6318 62.5143 3.67265C62.1851 3.72115 61.7894 4.0198 61.626 4.26996C61.5775 4.34399 61.4499 4.60947 61.432 4.75497C61.4142 4.91068 61.3274 6.85325 61.3248 7.68541C61.3248 8.09383 61.3478 9.83729 61.2763 10.233C61.2559 10.2483 61.2329 10.2661 61.2125 10.284C61.0134 10.358 56.1583 10.8711 54.9406 10.8532C54.859 10.6082 54.8768 10.3529 54.7977 9.91642C54.716 9.4595 54.3433 8.05299 54.3127 7.96365C53.5163 5.71732 51.5456 2.17679 48.5105 2.2304C48.2986 2.23295 48.0051 2.26358 47.7983 2.29422C47.3976 2.35293 46.7313 2.64648 46.4837 2.91706C46.157 3.27699 45.866 3.77986 45.7996 4.3491C45.7741 4.56607 45.5622 9.05618 45.5597 9.49268C45.5571 10.0517 45.5699 10.6184 45.5137 11.1647C45.3376 11.277 45.0951 11.3178 44.8321 11.3561C44.508 11.4021 44.2348 11.4327 43.9055 11.4097C43.6426 11.3919 43.3286 11.3689 43.0759 11.3919C42.6828 11.425 42.305 11.6012 42.2106 11.9892C42.1391 12.2904 42.351 12.5252 42.4684 12.686C42.836 13.1889 43.9387 13.5642 44.6279 13.7582C44.9802 13.8577 45.2916 13.9037 45.4958 14.0211C45.4856 15.106 45.4754 16.1857 45.4627 17.268C45.455 17.9394 45.4831 18.6848 45.381 19.2617C45.3657 19.5782 45.2942 19.8871 45.2482 20.201C45.2074 20.4818 44.8015 21.7403 44.776 21.8347C44.6943 22.164 44.4748 22.5673 44.3446 22.8762C43.3746 25.1838 41.7052 27.2004 39.6911 28.4997C39.5584 28.5865 39.2495 28.7499 39.1142 28.8239C38.6165 29.097 37.2712 29.4493 37.1053 29.4825C36.9649 29.5284 36.3574 29.6305 36.194 29.6382C35.6809 29.7224 34.79 29.6663 34.2872 29.5667C34.0013 29.5105 33.7281 29.3446 33.4933 29.2017C33.3708 29.1251 33.0415 28.7269 32.9623 28.6069C32.8755 28.4742 32.6637 27.9764 32.6356 27.8079C32.5897 27.5425 32.5743 27.157 32.5769 26.8354C32.582 26.3785 32.6356 25.9496 32.6943 25.5999C32.947 25.4416 33.8966 25.2476 34.0115 25.1966C34.3688 25.0919 34.6522 25.046 34.9764 24.903C36.8449 24.0811 38.9355 22.6286 40.0919 21.0792C40.3216 20.7269 40.5667 20.4308 40.7913 20.0734C41.2508 19.3382 41.5903 17.9624 41.6158 17.8373C41.9221 16.3414 42.0268 13.9394 41.3018 12.8545C40.9394 12.3159 40.4033 11.8181 39.7218 11.6599C39.5865 11.6292 38.8692 11.4148 37.7792 11.5195C37.4524 11.5501 36.9036 11.688 36.6509 11.762C35.5711 12.076 34.9483 12.4793 34.1366 13.046C32.6407 14.0926 31.4946 15.4148 30.522 16.9924C30.4352 17.1328 30.014 17.9343 29.8915 18.21C29.8302 18.3453 29.335 19.3867 29.2253 19.7671C29.1487 20.03 28.947 20.6197 28.9036 20.8775C28.8296 21.3063 28.702 21.8986 28.6535 22.3121C28.6177 22.598 28.5105 24.1525 28.5463 24.8341C28.5616 25.1455 28.6356 25.753 28.6713 26.0645C28.7224 26.5316 29.1078 27.8079 29.1946 28.0504C29.2967 28.3414 29.723 29.2144 29.7919 29.3778C30.7849 31.0294 32.6024 31.9739 35.0172 32.0351C35.4716 32.0479 35.9566 32.0351 36.411 31.9943C36.8883 31.9534 37.409 31.8309 37.8685 31.7058C40.6203 30.9579 42.6267 29.3319 44.0995 27.2719C44.5488 26.6439 45.118 26.0211 45.3325 25.1736C45.3452 25.1685 45.358 25.1634 45.3708 25.1608C45.3886 25.1659 45.4039 25.1685 45.4218 25.1762C45.4269 25.1864 45.4295 25.1991 45.4346 25.2119C45.5009 25.3599 45.5494 26.986 45.5801 27.2744C45.6618 28.0887 45.7996 28.6452 45.9247 29.2272C46.0498 29.8041 46.1519 30.1181 46.2693 30.4499C46.568 31.277 46.7339 31.3842 47.1193 31.9254C47.3235 32.2112 47.612 32.4538 47.8775 32.6707C48.4084 33.1047 48.8602 33.3727 49.6311 33.5871C49.9323 33.6714 50.4046 33.7352 50.7773 33.7403C52.1863 33.7556 53.3759 33.4697 54.3357 33.0051C56.3114 32.0479 57.7894 30.7613 58.9968 29.0358C59.4129 28.4461 60.365 26.7231 60.4978 26.3631C60.5692 26.1691 61.2176 24.5839 61.238 24.4997C61.3274 24.15 61.4142 23.9202 61.5009 23.6318H61.552C61.5571 23.9228 61.5801 24.3874 61.6056 24.6554C61.6413 25.046 61.6873 25.9624 61.7128 26.1589C61.7358 26.3274 61.8583 27.0804 61.8813 27.277C62.0421 28.7269 62.545 30.0568 63.2316 31.2259C63.7907 32.1781 64.605 33.2629 65.7332 33.5642C66.3561 33.7326 67.5303 33.8705 68.342 33.8194C69.0517 33.776 69.7077 33.6586 69.8379 33.628C70.9202 33.3702 71.9974 32.8162 72.8755 32.1679C73.3274 31.8335 73.7843 31.5016 74.1978 31.1213C74.7083 30.6516 75.2163 30.0594 75.5916 29.5182C75.7115 29.3753 76.3956 28.3899 76.6177 28.0377H76.6688C76.9036 28.395 76.97 28.8928 77.1742 29.2808C77.7026 30.2917 78.6828 31.4557 79.7626 31.933C80.2195 32.1347 80.8449 32.3338 81.4244 32.441C82.1595 32.5788 83.4384 32.5227 83.954 32.4818C84.827 32.4129 85.8149 32.0709 85.963 32.0224C89.455 30.8149 92.074 28.0887 93.4882 24.8877C93.8175 24.1372 94.1289 23.2949 94.2718 22.4193C94.3127 22.164 94.4378 21.2783 94.4633 20.7396C94.5092 19.7492 94.1851 18.4806 93.284 18.746L93.2789 18.7409ZM81.0185 23.3025C81.2406 22.6873 81.409 22.0772 81.6413 21.5182C81.7894 21.1659 82.3357 19.7977 82.471 19.4786C82.984 18.2891 84.9291 14.7001 85.4397 14.3529C85.5954 14.2457 85.7383 14.1308 85.9477 14.1538C86.5016 14.2125 86.5501 14.8047 86.4914 15.3C86.4607 15.5527 86.1876 17.3319 86.0064 17.9317C85.5801 19.3306 84.9776 20.3823 84.1787 21.4212C83.6937 22.0543 83.2444 22.5878 82.6113 23.0677C82.2336 23.3561 81.82 23.6318 81.4014 23.8641C81.1972 23.979 80.9649 24.0402 80.7683 24.1474C80.7505 24.1449 80.7351 24.1398 80.7173 24.1347C80.8194 23.8564 80.9189 23.5807 81.0159 23.3025H81.0185ZM33.4601 22.3963C33.6516 21.9445 33.7741 21.4774 33.9528 21.0383C33.9528 21.0332 33.9579 21.0281 33.9579 21.023C34.2157 20.3797 34.3842 19.762 34.665 19.1366C35.2061 17.9394 35.8673 16.7626 36.5335 15.6701C36.8755 15.1034 37.3146 14.1053 37.866 13.7862C37.9681 13.7531 38.0651 13.7046 38.1697 13.6867C38.4531 13.6382 38.6369 13.7199 38.7364 13.8934C38.8462 14.0849 38.8921 15.0447 38.7696 15.7211C38.7339 15.9254 38.642 16.4486 38.568 16.7754C38.4173 17.4467 37.866 18.6746 37.7639 18.8635C37.0823 20.1194 36.2374 21.508 35.1525 22.3478C34.6445 22.7435 33.2916 23.6037 33.0925 23.6292C33.0925 23.6216 33.0925 23.6114 33.0925 23.6037C33.0644 23.522 33.4218 22.4448 33.4601 22.3938V22.3963ZM61.2942 14.0211C61.2023 14.404 61.2712 14.8992 61.1793 15.3357C61.0364 16.0275 60.9394 16.7881 60.8041 17.5157C60.5105 19.0983 60.0817 20.6707 59.5329 22.0134C59.4435 22.2304 59.275 22.769 59.2342 22.843C59.0938 23.106 58.9891 23.351 58.8845 23.5986C58.8105 23.7696 58.2923 24.7014 58.0983 24.9924C57.7613 25.559 56.7351 26.9171 55.7345 26.7231C55.6401 26.7052 55.4639 26.6516 55.4154 26.5827C55.15 26.21 55.2648 24.4997 55.2776 23.8156C55.3108 22.2227 55.3542 20.5048 55.3669 18.8532C55.372 18.0772 55.3491 17.3446 55.3261 16.5686C55.3057 15.9305 55.2903 15.2566 55.2444 14.6184C55.2444 14.3606 55.1959 13.9777 55.2929 13.8092C56.4646 13.6663 59.5865 13.2374 60.0076 13.1634C60.2246 13.1251 60.9828 12.9975 61.1997 12.9694C61.4014 13.0562 61.3478 13.7735 61.2916 14.0211H61.2942Z" fill="#231F20"/>
<path id="Vector_3" d="M88.2212 0C84.6041 1.1104 75.8408 0.18379 74.4062 8.54882C75.6647 8.08423 81.8217 5.25335 85.6941 2.33567C85.6941 2.33567 81.8217 6.24122 74.9627 9.24058C81.1248 12.4416 86.9831 8.77345 88.2212 0Z" fill="#72BE44"/>
</g>
</svg>
